<svg viewBox="0 0 24 24" fill="none" xmlns="http://www.w3.org/2000/svg">
  <path
    d="M12.55 5.35c.95 0 1.75.8 1.75 1.75s-.8 1.75-1.75 1.75-1.75-.8-1.75-1.75.8-1.75 1.75-1.75Zm-.1 11.1c-.05 0-.1.05-.2.05.05-.95.65-2.1 1.1-3.05.45-.9.75-1.5.75-2.15 0-.6-.25-1.1-.75-1.4-.85-.55-2.05-.15-2.7.15-.6.3-.9 1.05-.6 1.65.2.4.55.65.95.7-.6 1.15-1.3 2.65-1.3 4.2 0 1.15.6 1.75.95 2 .45.3.95.4 1.4.4.6 0 1.15-.2 1.3-.25.65-.25.95-.95.7-1.6-.2-.65-.95-.95-1.6-.7ZM12 0C5.4 0 0 5.4 0 12s5.4 12 12 12 12-5.4 12-12S18.6 0 12 0Zm0 21.5a9.5 9.5 0 1 1 0-19 9.5 9.5 0 0 1 0 19Z"
    fill="currentColor" />
</svg>