<svg viewBox="0 0 32 32" fill="none" xmlns="http://www.w3.org/2000/svg">
  <path fill-rule="evenodd" clip-rule="evenodd"
    d="M16 29.333c7.364 0 13.333-5.97 13.333-13.333 0-7.364-5.97-13.333-13.333-13.333C8.636 2.667 2.667 8.637 2.667 16c0 7.364 5.97 13.333 13.333 13.333ZM16 32c8.837 0 16-7.163 16-16S24.837 0 16 0 0 7.163 0 16s7.163 16 16 16Z"
    fill="currentColor" />
  <g clip-path="url(#a)">
    <path fill-rule="evenodd" clip-rule="evenodd"
      d="M17.361 18.245h-.055c-.443 1.208-1.246 1.812-2.41 1.812-.873 0-1.577-.317-2.11-.948-.535-.631-.802-1.508-.802-2.625 0-1.45.37-2.625 1.11-3.534.74-.906 1.631-1.36 2.675-1.36.94 0 1.534.37 1.774 1.11h.038l.022-.207a.806.806 0 0 1 .804-.728h.504c.236 0 .442.091.6.268a.786.786 0 0 1 .204.624c-.224 2.19-.335 3.654-.335 4.384 0 .884.24 1.328.72 1.328.504 0 .923-.333 1.254-1.005.327-.669.491-1.546.491-2.624 0-1.48-.473-2.69-1.415-3.635-.942-.946-2.26-1.417-3.946-1.417-1.81 0-3.314.631-4.511 1.894-1.2 1.258-1.8 2.796-1.8 4.611 0 1.757.532 3.141 1.59 4.151 1.058 1.013 2.522 1.519 4.388 1.519a9.602 9.602 0 0 0 2.858-.415.787.787 0 0 1 .72.122.79.79 0 0 1 .33.651v.078a.8.8 0 0 1-.559.77c-.988.322-2.194.484-3.612.484-2.33 0-4.23-.67-5.694-2.006C8.73 20.209 8 18.414 8 16.155c0-2.301.78-4.237 2.34-5.803C11.901 8.782 13.911 8 16.37 8c2.275 0 4.116.608 5.52 1.825 1.408 1.216 2.11 2.82 2.11 4.809 0 1.637-.431 2.95-1.288 3.942-.857.988-1.923 1.482-3.19 1.482-.628 0-1.137-.169-1.528-.502-.392-.336-.603-.773-.635-1.311h.002ZM16.1 13.24c-.57 0-1.031.324-1.388.972-.358.648-.537 1.399-.537 2.252 0 .604.124 1.077.366 1.413.242.34.557.508.94.508.597 0 1.063-.32 1.405-.959.34-.636.511-1.488.511-2.556 0-.507-.12-.902-.356-1.193a1.154 1.154 0 0 0-.943-.436h.002Z"
      fill="currentColor" />
  </g>
  <defs>
    <clipPath id="a">
      <path fill="#fff" d="M8 8h16v16H8z" />
    </clipPath>
  </defs>
</svg>