<svg viewBox="0 0 32 32" fill="none" xmlns="http://www.w3.org/2000/svg">
  <path fill-rule="evenodd" clip-rule="evenodd"
    d="M16 29.333c7.364 0 13.333-5.97 13.333-13.333 0-7.364-5.97-13.333-13.333-13.333C8.636 2.667 2.667 8.637 2.667 16c0 7.364 5.97 13.333 13.333 13.333ZM16 32c8.837 0 16-7.163 16-16S24.837 0 16 0 0 7.163 0 16s7.163 16 16 16Z"
    fill="currentColor" />
  <path
    d="M14 13.333h-2V16h2v8h3.263v-8h2.421L20 13.333h-2.737v-1.066c0-.64.105-.854.737-.854h1.895V8h-2.421C15.053 8 14 9.067 14 11.093v2.24Z"
    fill="currentColor" />
</svg>