<svg viewBox="0 0 32 32" fill="none" xmlns="http://www.w3.org/2000/svg">
  <path fill-rule="evenodd" clip-rule="evenodd"
    d="M16 29.333c7.364 0 13.333-5.97 13.333-13.333 0-7.364-5.97-13.333-13.333-13.333C8.636 2.667 2.667 8.637 2.667 16c0 7.364 5.97 13.333 13.333 13.333ZM16 32c8.837 0 16-7.163 16-16S24.837 0 16 0 0 7.163 0 16s7.163 16 16 16Z"
    fill="currentColor" />
  <path
    d="M20.881 11.708c-.101-.052-.2-.11-.295-.172a4.159 4.159 0 0 1-.758-.644 3.576 3.576 0 0 1-.855-1.764h.003c-.065-.381-.038-.628-.034-.628h-2.576v9.962c0 .134 0 .266-.006.396l-.002.05c0 .006 0 .014-.002.021v.006a2.187 2.187 0 0 1-1.1 1.736 2.15 2.15 0 0 1-1.067.282 2.18 2.18 0 0 1-2.173-2.188 2.18 2.18 0 0 1 2.173-2.188c.228 0 .453.036.67.106l.003-2.623a4.785 4.785 0 0 0-3.688 1.08 5.055 5.055 0 0 0-1.103 1.36c-.109.187-.52.94-.569 2.163-.031.694.177 1.413.277 1.71v.007c.062.175.304.772.7 1.275.317.404.693.759 1.115 1.053v-.006l.006.006c1.248.848 2.63.792 2.63.792.24-.01 1.042 0 1.952-.431 1.01-.479 1.585-1.192 1.585-1.192.367-.426.66-.911.864-1.435.233-.613.31-1.348.31-1.642v-5.285l.448.294s.6.385 1.536.635c.67.178 1.575.216 1.575.216v-2.558c-.317.035-.96-.065-1.619-.394Z"
    fill="currentColor" />
</svg>