<svg viewBox="0 0 32 32" fill="none" xmlns="http://www.w3.org/2000/svg">
  <path fill-rule="evenodd" clip-rule="evenodd"
    d="M16 29.333c7.364 0 13.333-5.97 13.333-13.333 0-7.364-5.97-13.333-13.333-13.333C8.636 2.667 2.667 8.637 2.667 16c0 7.364 5.97 13.333 13.333 13.333ZM16 32c8.837 0 16-7.163 16-16S24.837 0 16 0 0 7.163 0 16s7.163 16 16 16Z"
    fill="currentColor" />
  <path
    d="M11.71 10.194c0 .844-.679 1.528-1.516 1.528a1.522 1.522 0 0 1-1.516-1.528c0-.843.679-1.528 1.516-1.528s1.515.685 1.515 1.528Zm.012 2.75H8.666v9.778h3.056v-9.778Zm4.877 0h-3.036v9.778H16.6V17.59c0-2.854 3.684-3.087 3.684 0v5.133h3.049v-6.191c0-4.816-5.453-4.64-6.733-2.27v-1.317Z"
    fill="currentColor" />
</svg>