<svg viewBox="0 0 32 32" fill="none" xmlns="http://www.w3.org/2000/svg">
  <path fill-rule="evenodd" clip-rule="evenodd"
    d="M16 29.333c7.364 0 13.333-5.97 13.333-13.333 0-7.364-5.97-13.333-13.333-13.333C8.636 2.667 2.667 8.637 2.667 16c0 7.364 5.97 13.333 13.333 13.333ZM16 32c8.837 0 16-7.163 16-16S24.837 0 16 0 0 7.163 0 16s7.163 16 16 16Z"
    fill="currentColor" />
  <path
    d="m22.752 19.298-2.991-1.546a.985.985 0 0 0-1.227.269l-1.092 1.411c-1.076-.571-1.882-1.126-2.823-2.067-1.009-1.008-1.546-1.831-2.084-2.873L13.93 13.4a.985.985 0 0 0 .269-1.227l-1.546-2.974a.999.999 0 0 0-1.429-.37l-1.899 1.277a1.506 1.506 0 0 0-.655 1.328c.034.537.1 1.226.235 1.697.555 2.134 1.882 4.335 3.764 6.2 1.866 1.866 4.067 3.193 6.201 3.764.47.118 1.16.185 1.714.236a1.476 1.476 0 0 0 1.344-.672l1.244-1.933c.269-.504.084-1.16-.42-1.428Z"
    fill="currentColor" />
</svg>