<svg viewBox="0 0 32 32" fill="none" xmlns="http://www.w3.org/2000/svg">
  <path fill-rule="evenodd" clip-rule="evenodd"
    d="M16 29.333c7.364 0 13.333-5.97 13.333-13.333 0-7.364-5.97-13.333-13.333-13.333C8.636 2.667 2.667 8.637 2.667 16c0 7.364 5.97 13.333 13.333 13.333ZM16 32c8.837 0 16-7.163 16-16S24.837 0 16 0 0 7.163 0 16s7.163 16 16 16Z"
    fill="currentColor" />
  <path
    d="M24 11.387a6.8 6.8 0 0 1-1.903.525c.692-.438 1.211-1.051 1.47-1.84a7.33 7.33 0 0 1-2.075.789c-.605-.613-1.47-1.051-2.335-1.051-2.076 0-3.633 2.015-3.2 4.03-2.768-.088-5.19-1.402-6.746-3.417-.865 1.49-.52 3.417.951 4.38-.519 0-1.038-.087-1.47-.35 0 1.49 1.038 2.98 2.681 3.242-.519.176-1.038.176-1.557.088.433 1.314 1.643 2.278 3.027 2.278C11.46 21.112 9.73 21.638 8 21.463c1.47.964 3.2 1.49 5.103 1.49 6.054 0 9.513-5.17 9.34-9.901.606-.439 1.125-1.052 1.557-1.665Z"
    fill="currentColor" />
</svg>