<svg viewBox="0 0 110 106" fill="none" xmlns="http://www.w3.org/2000/svg">
    <path
        d="M12.18 14.32v4.92l3.87-4.92h1.4l-2.9 3.69L17.5 23h-1.37l-2.36-4-1.59 2v2h-1.17v-8.68h1.17Zm10.07 2.81h1.12V23h-1l-.13-.89c-.33.61-1.11 1.03-1.98 1.03-1.37 0-2.13-.92-2.13-2.36v-3.65h1.12v3.28c0 1.26.54 1.74 1.4 1.74 1.04 0 1.6-.66 1.6-1.92v-3.1Zm6.12-.05v1.04h-.5c-1.07 0-1.73.64-1.73 1.77V23H25v-5.86h1.05l.08.9c.24-.62.82-1.03 1.63-1.03.2 0 .37.03.6.07ZM31.25 23l-2.37-5.87h1.2l1.29 3.28c.2.55.37 1.04.46 1.4.1-.38.3-.89.5-1.4l1.3-3.28h1.18L32.36 23h-1.11Zm6.72.14c-1.73 0-2.92-1.24-2.92-3.07 0-1.83 1.17-3.1 2.87-3.1 1.67 0 2.76 1.15 2.76 2.89v.42h-4.53c.08 1.24.73 1.93 1.84 1.93.88 0 1.46-.36 1.65-1.03h1.05c-.28 1.26-1.27 1.96-2.72 1.96Zm-.05-5.23c-.98 0-1.6.59-1.75 1.62h3.38c0-.97-.63-1.62-1.63-1.62ZM43.07 23h-1.13v-5.87h1.02l.12.9a2.18 2.18 0 0 1 1.95-1.07c1.54 0 2.25.95 2.25 2.45V23h-1.13v-3.34c0-1.18-.55-1.66-1.41-1.66-1.06 0-1.67.75-1.67 1.9V23Zm11.59 2.08h-.94a9.28 9.28 0 0 1-1.84-5.64c0-2.04.66-4.18 1.84-5.63h.94a9.96 9.96 0 0 0-1.62 5.63c0 2.12.6 4.23 1.62 5.64ZM55 21.3h1.08c0 .6.45.96 1.2.96.79 0 1.24-.33 1.24-.87 0-.4-.19-.63-.8-.79l-1.03-.24c-1.05-.25-1.54-.77-1.54-1.63 0-1.08.91-1.77 2.21-1.77 1.28 0 2.12.72 2.15 1.84h-1.08c-.03-.59-.42-.96-1.1-.96-.71 0-1.11.31-1.11.85 0 .4.29.66.86.8l1.04.26c1 .24 1.48.7 1.48 1.57 0 1.12-.96 1.82-2.35 1.82-1.38 0-2.25-.73-2.25-1.84ZM62.5 23h-1.13v-4.92h-1.15v-.95h1.15V15.3h1.13v1.83h1.15v.95h-1.15V23Zm3.81.14c-1.26 0-2-.7-2-1.77 0-1.08.8-1.75 2.18-1.86l1.85-.15v-.16c0-.99-.59-1.34-1.38-1.34-.95 0-1.49.42-1.49 1.13h-.98c0-1.22 1-2.03 2.52-2.03 1.45 0 2.43.77 2.43 2.36V23h-.96l-.12-.95c-.3.67-1.1 1.1-2.05 1.1Zm.33-.87c1.06 0 1.71-.7 1.71-1.8v-.31l-1.5.12c-1 .1-1.4.48-1.4 1.05 0 .63.45.94 1.19.94Zm3.98-2.2c0-1.83 1.17-3.1 2.88-3.1 1.48 0 2.5.83 2.71 2.14H75.1c-.2-.74-.8-1.14-1.55-1.14-1.07 0-1.8.82-1.8 2.09 0 1.26.68 2.08 1.75 2.08.8 0 1.4-.42 1.6-1.12h1.14c-.23 1.27-1.32 2.12-2.74 2.12-1.73 0-2.87-1.22-2.87-3.07ZM78.58 23h-1.13v-8.83h1.13v5.72l2.6-2.76h1.42l-2.25 2.34L82.6 23h-1.3l-1.72-2.71-1 1.04V23Zm7.25.14c-1.73 0-2.92-1.24-2.92-3.07 0-1.83 1.17-3.1 2.87-3.1 1.67 0 2.76 1.15 2.76 2.89v.42H84c.09 1.24.74 1.93 1.85 1.93.88 0 1.45-.36 1.65-1.03h1.05c-.29 1.26-1.27 1.96-2.72 1.96Zm-.05-5.23c-.98 0-1.6.59-1.75 1.62h3.38c0-.97-.63-1.62-1.63-1.62Zm6.37 5.23c-1.7 0-2.73-1.27-2.73-3.06 0-1.8 1.04-3.12 2.78-3.12.9 0 1.66.4 2.05 1.12v-3.91h1.12V23h-1.01l-.1-1.07c-.38.8-1.17 1.21-2.1 1.21Zm.23-1.02c1.15 0 1.86-.85 1.86-2.07 0-1.2-.7-2.07-1.86-2.07-1.15 0-1.82.87-1.82 2.07 0 1.21.67 2.07 1.82 2.07Zm4.75 2.96h-.95a9.93 9.93 0 0 0 1.62-5.64c0-2.25-.66-4.31-1.62-5.63h.95a9.29 9.29 0 0 1 1.82 5.63c0 2.17-.73 4.26-1.82 5.64Z"
        fill="#000" />
    <path
        d="M10.48 75.7H10V96h90V51.79h-.17l-.57.87-.31 1.85-.6.17-.89 1.15h-.68l-1.14-6.1h-.37l-.54.67-1.34-9.4h-.63l-.4 1.63h-.48l-.49-.92-.74-.25-1.9.78-.4.14-.72.63h-1.05l-1.66 5.7h-.48l-.63.88h-2.05l-.6.63h-.62l-1 1.95-.83.35-.77 1.99-1.48 2.43h-.83l-.97 1.4-.6 9.26-.93-.63h-.4l-.35 1.15-.45.1-.37-1-.83.17-.6.84-1.02-4.8-.8 1.39h-.71l-.69-1.54h-.8l-.88-.83-.68-.18-1.29.9h-.37l-.68-1.42h-.31l-.6.9-.71.53-.52.77h-.51l-.66-.88h-.28l-.63.7h-1.9l-.58.56-.74 1.7h-.37l-.2-.86h-.88l-.57 1.4-.6 4.69-.83 1.29-2.48.14-.88-1.19h-.28l-.72 1.05h-.8l-.4 1.19-.82-7.67-.66-.97-.82.2-.2 5.77h-.74l-1.03 2.25h-.48l-.89 1.4-1.05-4.81-1.11.9-.71-.14-1.14-.76h-.6l-1.26.76-.74-.17-.85-1.25h-.49l-.51 1.08-.43.17-.97 1.74-.8-.17-1.85-2.48h-.43l-.42 1.08h-.63l-.91 1.71h-.46l-.57-1.04h-.31L23 73.67l-.83.1-.94 1.72h-.37l-1.63-3.83h-.6l-.76 1.29h-1.83l-1.22.6h-1.57l-.46.72h-.28l-.54 1.01h-.46l-.2-.38h-.6l-.23.8Z"
        fill="#FFED97" stroke="#000" stroke-width=".5" />
    <path
        d="M99.7 77h.3v19H10v-8.93h.6l.63-6.74 1.23-.82h.67l.39-1.13h.59l.76-1.01h.5l1.07.26h.76l.76-.92h.55l.3.53h1.78l.85.75h.84l1.57.94h1.14l.72 1.87h.55l.6-.47h.93l1.48 1.24h.47l.72-.4h.46l.47 1.18h.76l.64-.17h.5l.22.31 1.14.62h.38l.38-.4h.9l.8 1.5h1.01l.76.87.64.08.34.56h.46l.94-.37h.5l.94.3h.34l.38-2.27h.76v8.85h.55L45.79 91l.72-.96h.34l.38.54h.5l.51-.54h.56l.38.28h.72l1.44-2.33h.42l.38.15h.5l1.5-.63.25-.92h.33l.64.1h.85l.55-1.42h.46l.85.3h.55l1.31.37h.64l1.44-.92h.72l.34.62h.38l.5.3h.69l.5 1.13h.51l.51-.37h.5l.98 2.68h.72l.43-.09h.76l.85.75h.72l.25-.2h.5l1.02 4.26h.55l.3-.6h.34l.38.19h.47l.42-.92.8-7.13.73-.2 1.44-4.58h.5l.47.31h.5l.39-1.54 1.02-.7h.46l.93.36h.77l.55-.22h.63l.55-.76h.17l.47.14.72.25h.72l.8-.39h.43l.5-.32.68-.13 1.19-.82h2.58l.47-.39h.42l.38-.65h.5l1.15.31h.6l.59.06h.42l.68-.32h.34l.17.43h.17l.46.53Z"
        fill="#FFBE05" stroke="#000" stroke-width=".5" />
</svg>