<svg viewBox="0 0 111 106" fill="none" xmlns="http://www.w3.org/2000/svg">
    <path
        d="M12.68 14.32v4.92l3.87-4.92h1.4l-2.9 3.69L18 23h-1.37l-2.36-4-1.59 2v2h-1.17v-8.68h1.17Zm10.07 2.81h1.12V23h-1l-.13-.89c-.33.61-1.11 1.03-1.98 1.03-1.37 0-2.13-.92-2.13-2.36v-3.65h1.12v3.28c0 1.26.54 1.74 1.4 1.74 1.04 0 1.6-.66 1.6-1.92v-3.1Zm6.12-.05v1.04h-.5c-1.07 0-1.73.64-1.73 1.77V23H25.5v-5.86h1.05l.08.9c.24-.62.82-1.03 1.63-1.03.2 0 .37.03.6.07ZM31.75 23l-2.37-5.87h1.2l1.29 3.28c.2.55.37 1.04.46 1.4.1-.38.3-.89.5-1.4l1.3-3.28h1.18L32.86 23h-1.11Zm6.72.14c-1.73 0-2.92-1.24-2.92-3.07 0-1.83 1.17-3.1 2.87-3.1 1.67 0 2.76 1.15 2.76 2.89v.42h-4.53c.08 1.24.73 1.93 1.84 1.93.88 0 1.46-.36 1.65-1.03h1.05c-.28 1.26-1.27 1.96-2.72 1.96Zm-.05-5.23c-.98 0-1.6.59-1.75 1.62h3.38c0-.97-.63-1.62-1.63-1.62ZM43.57 23h-1.13v-5.87h1.02l.12.9a2.18 2.18 0 0 1 1.95-1.07c1.54 0 2.25.95 2.25 2.45V23h-1.13v-3.34c0-1.18-.55-1.66-1.41-1.66-1.06 0-1.67.75-1.67 1.9V23Z"
        fill="#000" />
    <path
        d="M10.98 95.35h-.48V96h90V65.7h-.17l-.57 1.08-.31 2.3-.6.21-.89 1.43h-.68l-1.14-1.43h-.37l-.54.82-1.34.6h-.63l-.4-4.1h-.48l-.49-2.68-.74-.3-1.9-3.63-.4.17-.72.78h-1.05l-1.66.95h-.48l-.63 1.08h-2.05l-.6.78h-.62l-1 2.42-.83.43-.77 2.47-1.48 2.24h-.83l-.97 1.73h-.6l-.93-.78h-.4l-.35 1.43-.45.13-.37-1.25-.83.21-.6 1.04-1.02.17-.8 1.73h-.71l-.69-1.9h-.8l-.88-1.04-.68-.21-1.29 1.12h-.37l-.68-1.77h-.31l-.6 1.12-.71.65-.52.95h-.51l-.66-1.08h-.28l-.63.86h-1.9l-.58.7-.74 2.11h-.37l-.2-1.08h-.88l-.57 1.73-.6-.3-.83 1.6-2.48.17-.88-1.47h-.28l-.72 1.3h-.8l-.4 1.47-.82.69-.66-1.21-.82.26-.2.95h-.74l-1.03-1.21h-.48l-.89 1.73-1.05.17-1.11 1.12-.71-.17-1.14-.95H36l-1.26.95-.74-.22-.85-1.55h-.49l-.51 1.34-.43.21-.97 2.17-.8-.22-1.85-3.07h-.43L27.26 83h-.63l-.91 2.12h-.46l-.57-1.3h-.31l-.88 2.9-.83.13-.94 2.11h-.37l-1.63 1.39h-.6l-.76 1.6h-1.83l-1.22.73h-1.57l-.46.9h-.28l-.54 1.26H12l-.2-.47h-.6l-.23 1Z"
        fill="#FFED97" stroke="#000" stroke-width=".5" />
    <path
        d="M100.2 81.76h.3V96h-90v-6.7h.6l.63-5.05 1.23-.62h.67l.39-.85h.59l.76-.76h.5l1.07.2h.76l.76-.68h.55l.3.4h1.78l.85.55h.84l1.57.71h1.14l.72 1.4h.55l.6-.35h.93l1.48.93h.47l.72-.3h.46l.47.88h.76l.64-.13h.5l.22.24 1.14.46h.38l.38-.3h.9l.8 1.13h1.01l.76.65.64.06.34.42h.46l.94-.28h.5l.94.22h.34l.38-1.7h.76v6.64h.55l1.06-.92.72-.72h.34l.38.4h.5l.51-.4h.56l.38.2h.72L51.84 90h.42l.38.12h.5l1.5-.48.25-.69h.33l.64.08h.85l.55-1.07h.46l.85.22h.55l1.31.28h.64l1.44-.68h.72l.34.46h.38l.5.22h.69l.5.85h.51l.51-.28h.5l.98 2.02h.72l.43-.07h.76l.85.56h.72l.25-.15h.5l1.02 3.2h.55l.3-.46h.34l.38.14h.47l.42-.68.8-5.35.73-.15 1.44-3.44h.5l.47.24h.5l.39-1.16 1.02-.52h.46l.93.27h.77l.55-.16h.63l.55-.57h.17l.47.1.72.19h.72l.8-.3h.43l.5-.24.68-.1 1.19-.61h2.58l.47-.3h.42l.38-.48h.5l1.15.23h.6l.59.05h.42l.68-.25h.34l.17.33h.17l.46.4Z"
        fill="#FFBE05" stroke="#000" stroke-width=".5" />
</svg>