<svg viewBox="0 0 110 106" fill="none" xmlns="http://www.w3.org/2000/svg">
    <path
        d="M11 23v-8.68h3.32c1.7 0 2.72.87 2.72 2.3 0 1-.43 1.66-1.3 2.02.97.32 1.46 1.01 1.46 2.04 0 1.44-1.04 2.32-2.76 2.32h-3.43Zm3.25-7.63h-2.07v2.78h2.14c.97 0 1.52-.53 1.52-1.43 0-.86-.57-1.35-1.6-1.35Zm.17 3.8h-2.24v2.79h2.24c1 0 1.57-.52 1.57-1.42 0-.86-.58-1.37-1.57-1.37Zm5.78 3.97c-1.26 0-2-.7-2-1.77 0-1.08.8-1.75 2.18-1.86l1.84-.15v-.16c0-.99-.58-1.34-1.38-1.34-.94 0-1.48.42-1.48 1.13h-.99c0-1.22 1.01-2.03 2.52-2.03 1.45 0 2.44.77 2.44 2.36V23h-.96l-.12-.95c-.3.67-1.1 1.1-2.05 1.1Zm.32-.87c1.07 0 1.72-.7 1.72-1.8v-.31l-1.5.12c-1 .1-1.4.48-1.4 1.05 0 .63.45.94 1.18.94Zm7.73-5.19v1.04h-.5c-1.07 0-1.73.64-1.73 1.77V23h-1.13v-5.86h1.06l.07.9c.24-.62.83-1.03 1.63-1.03.2 0 .37.03.6.07Zm6.87 8h-.93a9.28 9.28 0 0 1-1.84-5.64c0-2.04.66-4.18 1.84-5.63h.93a9.96 9.96 0 0 0-1.62 5.63c0 2.12.6 4.23 1.62 5.64Zm.34-3.78h1.08c0 .6.46.96 1.2.96.8 0 1.25-.33 1.25-.87 0-.4-.2-.63-.8-.79l-1.04-.24c-1.04-.25-1.53-.77-1.53-1.63 0-1.08.9-1.77 2.2-1.77 1.29 0 2.13.72 2.15 1.84H38.9c-.02-.59-.42-.96-1.1-.96-.7 0-1.1.31-1.1.85 0 .4.28.66.86.8l1.03.26c1 .24 1.49.7 1.49 1.57 0 1.12-.96 1.82-2.35 1.82-1.38 0-2.26-.73-2.26-1.84Zm7.52 1.7h-1.13v-4.92H40.7v-.95h1.15V15.3h1.13v1.83h1.15v.95h-1.15V23Zm3.8.14c-1.25 0-2-.7-2-1.77 0-1.08.8-1.75 2.19-1.86l1.84-.15v-.16c0-.99-.58-1.34-1.38-1.34-.94 0-1.48.42-1.48 1.13h-.99c0-1.22 1.01-2.03 2.52-2.03 1.45 0 2.44.77 2.44 2.36V23h-.96l-.12-.95c-.3.67-1.1 1.1-2.05 1.1Zm.33-.87c1.07 0 1.72-.7 1.72-1.8v-.31l-1.5.12c-1 .1-1.4.48-1.4 1.05 0 .63.45.94 1.18.94Zm3.99-2.2c0-1.83 1.16-3.1 2.88-3.1 1.47 0 2.5.83 2.7 2.14h-1.12c-.2-.74-.8-1.14-1.55-1.14-1.07 0-1.8.82-1.8 2.09 0 1.26.69 2.08 1.75 2.08.8 0 1.4-.42 1.61-1.12h1.13c-.23 1.27-1.32 2.12-2.74 2.12-1.72 0-2.86-1.22-2.86-3.07ZM59.04 23h-1.13v-8.83h1.13v5.72l2.6-2.76h1.42l-2.24 2.34L63.05 23h-1.3l-1.71-2.71-1 1.04V23Zm7.25.14c-1.72 0-2.91-1.24-2.91-3.07 0-1.83 1.16-3.1 2.87-3.1 1.66 0 2.76 1.15 2.76 2.89v.42h-4.54c.08 1.24.73 1.93 1.85 1.93.87 0 1.45-.36 1.64-1.03h1.06c-.3 1.26-1.27 1.96-2.73 1.96Zm-.04-5.23c-.99 0-1.61.59-1.76 1.62h3.39c0-.97-.64-1.62-1.63-1.62Zm6.37 5.23c-1.7 0-2.74-1.27-2.74-3.06 0-1.8 1.05-3.12 2.79-3.12.9 0 1.65.4 2.05 1.12v-3.91h1.11V23h-1l-.1-1.07c-.38.8-1.18 1.21-2.11 1.21Zm.23-1.02c1.15 0 1.86-.85 1.86-2.07 0-1.2-.71-2.07-1.86-2.07-1.16 0-1.83.87-1.83 2.07 0 1.21.67 2.07 1.83 2.07Zm4.74 2.96h-.95a9.93 9.93 0 0 0 1.62-5.64c0-2.25-.66-4.31-1.62-5.63h.95a9.29 9.29 0 0 1 1.83 5.63c0 2.17-.74 4.26-1.83 5.64Z"
        fill="#000" />
    <path fill="#FFFDE4" d="M10 44h12v7H10z" />
    <path fill="#FFED97" d="M10 51h12v13H10z" />
    <path fill="#FBCE50" d="M10 64h12v18H10z" />
    <path fill="#FFBE05" d="M10 82h12v14H10z" />
    <path stroke="#000" stroke-width=".5" d="M9.75 43.75h12.5v52.5H9.75z" />
    <path fill="#FFFDE4" d="M36 56h12v5H36z" />
    <path fill="#FFED97" d="M36 61h12v10H36z" />
    <path fill="#FBCE50" d="M36 71h12v16H36z" />
    <path fill="#FFBE05" d="M36 87h12v9H36z" />
    <path stroke="#000" stroke-width=".5" d="M35.75 55.75h12.5v40.5h-12.5z" />
    <path fill="#FFFDE4" d="M62 65h12v5H62z" />
    <path fill="#FFED97" d="M62 70h12v9H62z" />
    <path fill="#FBCE50" d="M62 79h12v11H62z" />
    <path fill="#FFBE05" d="M62 90h12v6H62z" />
    <path stroke="#000" stroke-width=".5" d="M61.75 64.75h12.5v31.5h-12.5z" />
    <path fill="#FFFDE4" d="M88 73h12v4H88z" />
    <path fill="#FFED97" d="M88 77h12v7H88z" />
    <path fill="#FBCE50" d="M88 84h12v9H88z" />
    <path fill="#FFBE05" d="M88 93h12v3H88z" />
    <path stroke="#000" stroke-width=".5" d="M87.75 72.75h12.5v23.5h-12.5z" />
</svg>