<svg viewBox="0 0 110 106" fill="none" xmlns="http://www.w3.org/2000/svg">
    <path
        d="M11 23v-8.68h3.32c1.7 0 2.72.87 2.72 2.3 0 1-.43 1.66-1.3 2.02.97.32 1.46 1.01 1.46 2.04 0 1.44-1.04 2.32-2.76 2.32h-3.43Zm3.25-7.63h-2.07v2.78h2.14c.97 0 1.52-.53 1.52-1.43 0-.86-.57-1.35-1.6-1.35Zm.17 3.8h-2.24v2.79h2.24c1 0 1.57-.52 1.57-1.42 0-.86-.58-1.37-1.57-1.37Zm5.78 3.97c-1.26 0-2-.7-2-1.77 0-1.08.8-1.75 2.18-1.86l1.84-.15v-.16c0-.99-.58-1.34-1.38-1.34-.94 0-1.48.42-1.48 1.13h-.99c0-1.22 1.01-2.03 2.52-2.03 1.45 0 2.44.77 2.44 2.36V23h-.96l-.12-.95c-.3.67-1.1 1.1-2.05 1.1Zm.32-.87c1.07 0 1.72-.7 1.72-1.8v-.31l-1.5.12c-1 .1-1.4.48-1.4 1.05 0 .63.45.94 1.18.94Zm7.73-5.19v1.04h-.5c-1.07 0-1.73.64-1.73 1.77V23h-1.13v-5.86h1.06l.07.9c.24-.62.83-1.03 1.63-1.03.2 0 .37.03.6.07Zm4.48 1.4h2.52v-2.52h.96v2.52h2.52v.96h-2.52v2.53h-.96v-2.53h-2.52v-.96Zm12.43-4.16v7.59h3.82V23h-5v-8.68h1.18Zm5.45 1.42a.75.75 0 0 1-.74-.74c0-.42.34-.75.74-.75a.75.75 0 0 1 0 1.49ZM50.06 23v-5.87h1.13V23h-1.13Zm3.9 0h-1.13v-5.87h1.02l.12.9a2.18 2.18 0 0 1 1.94-1.07c1.55 0 2.26.95 2.26 2.45V23h-1.13v-3.34c0-1.18-.55-1.66-1.42-1.66-1.05 0-1.66.75-1.66 1.9V23Zm6.32-7.26a.75.75 0 0 1-.74-.74c0-.42.33-.75.74-.75s.75.33.75.75c0 .4-.34.74-.75.74ZM59.73 23v-5.87h1.13V23h-1.13Zm5.3.14c-1.73 0-2.92-1.24-2.92-3.07 0-1.83 1.17-3.1 2.87-3.1 1.67 0 2.76 1.15 2.76 2.89v.42H63.2c.09 1.24.74 1.93 1.85 1.93.88 0 1.45-.36 1.65-1.03h1.05c-.29 1.26-1.27 1.96-2.72 1.96Zm-.05-5.23c-.98 0-1.6.59-1.75 1.62h3.38c0-.97-.63-1.62-1.63-1.62ZM70.13 23H69v-5.87h1.02l.12.9a2.18 2.18 0 0 1 1.94-1.07c1.55 0 2.26.95 2.26 2.45V23h-1.13v-3.34c0-1.18-.55-1.66-1.41-1.66-1.06 0-1.67.75-1.67 1.9V23Z"
        fill="#000" />
    <path fill="#FFFDE4" d="M10 44h12v7H10z" />
    <path fill="#FFED97" d="M10 51h12v13H10z" />
    <path fill="#FBCE50" d="M10 64h12v18H10z" />
    <path fill="#FFBE05" d="M10 82h12v14H10z" />
    <path stroke="#000" stroke-width=".5" d="M9.75 43.75h12.5v52.5H9.75z" />
    <path fill="#FFFDE4" d="M36 56h12v5H36z" />
    <path fill="#FFED97" d="M36 61h12v10H36z" />
    <path fill="#FBCE50" d="M36 71h12v16H36z" />
    <path fill="#FFBE05" d="M36 87h12v9H36z" />
    <path stroke="#000" stroke-width=".5" d="M35.75 55.75h12.5v40.5h-12.5z" />
    <path fill="#FFFDE4" d="M62 65h12v5H62z" />
    <path fill="#FFED97" d="M62 70h12v9H62z" />
    <path fill="#FBCE50" d="M62 79h12v11H62z" />
    <path fill="#FFBE05" d="M62 90h12v6H62z" />
    <path stroke="#000" stroke-width=".5" d="M61.75 64.75h12.5v31.5h-12.5z" />
    <path fill="#FFFDE4" d="M88 73h12v4H88z" />
    <path fill="#FFED97" d="M88 77h12v7H88z" />
    <path fill="#FBCE50" d="M88 84h12v9H88z" />
    <path fill="#FFBE05" d="M88 93h12v3H88z" />
    <path stroke="#000" stroke-width=".5" d="M87.75 72.75h12.5v23.5h-12.5z" />
    <path d="m16 32 26 20 26-6h26" stroke="#000" stroke-width=".5" stroke-dasharray="2 2" />
    <circle cx="16" cy="32" r="2.75" fill="#D90E83" stroke="#000" stroke-width=".5" />
    <circle cx="42" cy="52" r="2.75" fill="#D90E83" stroke="#000" stroke-width=".5" />
    <circle cx="68" cy="46" r="2.75" fill="#D90E83" stroke="#000" stroke-width=".5" />
    <circle cx="94" cy="46" r="2.75" fill="#D90E83" stroke="#000" stroke-width=".5" />
</svg>