<svg viewBox="0 0 110 106" fill="none" xmlns="http://www.w3.org/2000/svg">
    <path
        d="M10 23v-8.68h3.32c1.7 0 2.72.87 2.72 2.3 0 1-.43 1.66-1.3 2.02.97.32 1.46 1.01 1.46 2.04 0 1.44-1.04 2.32-2.76 2.32h-3.43Zm3.25-7.63h-2.07v2.78h2.14c.97 0 1.52-.53 1.52-1.43 0-.86-.57-1.35-1.6-1.35Zm.17 3.8h-2.24v2.79h2.24c1 0 1.57-.52 1.57-1.42 0-.86-.58-1.37-1.57-1.37Zm5.78 3.97c-1.26 0-2-.7-2-1.77 0-1.08.8-1.75 2.18-1.86l1.84-.15v-.16c0-.99-.58-1.34-1.38-1.34-.94 0-1.48.42-1.48 1.13h-.99c0-1.22 1.01-2.03 2.52-2.03 1.45 0 2.44.77 2.44 2.36V23h-.96l-.12-.95c-.3.67-1.1 1.1-2.05 1.1Zm.32-.87c1.07 0 1.72-.7 1.72-1.8v-.31l-1.5.12c-1 .1-1.4.48-1.4 1.05 0 .63.45.94 1.18.94Zm7.73-5.19v1.04h-.5c-1.07 0-1.73.64-1.73 1.77V23h-1.13v-5.86h1.06l.07.9c.24-.62.83-1.03 1.63-1.03.2 0 .37.03.6.07Z"
        fill="#000" />
    <path fill="#FFBE05" d="M9 48h12v48H9z" />
    <path stroke="#000" stroke-width=".5" d="M8.75 47.75h12.5v48.5H8.75z" />
    <path fill="#FFED97" d="M21.5 62h12v34h-12z" />
    <path stroke="#000" stroke-width=".5" d="M21.25 61.75h12.5v34.5h-12.5z" />
    <path fill="#FFBE05" d="M42.5 56h12v40h-12z" />
    <path stroke="#000" stroke-width=".5" d="M42.25 55.75h12.5v40.5h-12.5z" />
    <path fill="#FFED97" d="M55 67h12v29H55z" />
    <path stroke="#000" stroke-width=".5" d="M54.75 66.75h12.5v29.5h-12.5z" />
    <path fill="#FFBE05" d="M76 77h12v19H76z" />
    <path stroke="#000" stroke-width=".5" d="M75.75 76.75h12.5v19.5h-12.5z" />
    <path fill="#FFED97" d="M88.5 84h12v12h-12z" />
    <path stroke="#000" stroke-width=".5" d="M88.25 83.75h12.5v12.5h-12.5z" />
</svg>