<svg viewBox="0 0 110 106" fill="none" xmlns="http://www.w3.org/2000/svg">
    <path
        d="M13.88 23H11v-8.68h2.82c2.59 0 4.34 1.76 4.34 4.35 0 2.58-1.73 4.33-4.3 4.33Zm-.14-7.6h-1.56v6.5h1.61c1.93 0 3.16-1.24 3.16-3.23 0-2.02-1.23-3.27-3.2-3.27Zm5.35 4.66c0-1.81 1.3-3.08 3.06-3.08a2.96 2.96 0 0 1 3.05 3.08c0 1.81-1.3 3.08-3.05 3.08a2.96 2.96 0 0 1-3.06-3.08Zm1.14 0c0 1.22.78 2.08 1.92 2.08 1.13 0 1.92-.86 1.92-2.08 0-1.22-.79-2.08-1.92-2.08-1.14 0-1.92.86-1.92 2.08ZM27.58 23h-1.13v-5.87h1.02l.12.9a2.18 2.18 0 0 1 1.94-1.07c1.55 0 2.26.95 2.26 2.45V23h-1.13v-3.34c0-1.18-.55-1.66-1.42-1.66-1.05 0-1.66.75-1.66 1.9V23Zm9.83-5.87h1.11V23h-1l-.12-.89c-.34.61-1.12 1.03-1.98 1.03-1.37 0-2.14-.92-2.14-2.36v-3.65h1.13v3.28c0 1.26.54 1.74 1.4 1.74 1.03 0 1.6-.66 1.6-1.92v-3.1ZM41.8 23H40.7v-4.92h-1.15v-.95h1.15V15.3h1.13v1.83h1.15v.95h-1.15V23Z"
        fill="#000" />
    <mask id="a" fill="#fff">
        <path
            d="M55 38a29 29 0 1 1 0 58 29 29 0 0 1 0-58Zm0 48.43a19.43 19.43 0 1 0 0-38.86 19.43 19.43 0 0 0 0 38.86Z" />
    </mask>
    <path d="M55 38a29 29 0 1 1 0 58 29 29 0 0 1 0-58Zm0 48.43a19.43 19.43 0 1 0 0-38.86 19.43 19.43 0 0 0 0 38.86Z"
        fill="#FFFDE4" stroke="#000" mask="url(#a)" />
    <mask id="b" fill="#fff">
        <path d="M55 38a29 29 0 1 1-10.46 1.95l3.45 8.93A19.43 19.43 0 1 0 55 47.57V38Z" />
    </mask>
    <path d="M55 38a29 29 0 1 1-10.46 1.95l3.45 8.93A19.43 19.43 0 1 0 55 47.57V38Z" fill="#FFED97" stroke="#000"
        mask="url(#b)" />
    <mask id="c" fill="#fff">
        <path d="M55 38a29 29 0 1 1-27.63 20.18l9.12 2.91A19.43 19.43 0 1 0 55 47.57V38Z" />
    </mask>
    <path d="M55 38a29 29 0 1 1-27.63 20.18l9.12 2.91A19.43 19.43 0 1 0 55 47.57V38Z" fill="#FBCE50" stroke="#000"
        mask="url(#c)" />
    <mask id="d" fill="#fff">
        <path d="M55 38a29 29 0 0 1 5.66 57.44l-1.87-9.38A19.43 19.43 0 0 0 55 47.57V38Z" />
    </mask>
    <path d="M55 38a29 29 0 0 1 5.66 57.44l-1.87-9.38A19.43 19.43 0 0 0 55 47.57V38Z" fill="#FFBE05" stroke="#000"
        mask="url(#d)" />
</svg>