<svg viewBox="0 0 110 106" fill="none" xmlns="http://www.w3.org/2000/svg">
    <path
        d="M12.18 14.32v7.59H16V23h-5v-8.68h1.18Zm5.46 1.42a.75.75 0 0 1-.75-.74c0-.42.34-.75.75-.75a.75.75 0 0 1 0 1.49ZM17.09 23v-5.87h1.12V23H17.1Zm3.89 0h-1.13v-5.87h1.02l.12.9a2.18 2.18 0 0 1 1.95-1.07c1.54 0 2.25.95 2.25 2.45V23h-1.13v-3.34c0-1.18-.55-1.66-1.41-1.66-1.06 0-1.67.75-1.67 1.9V23Zm6.33-7.26a.75.75 0 0 1-.75-.74c0-.42.34-.75.75-.75a.75.75 0 0 1 0 1.49ZM26.75 23v-5.87h1.13V23h-1.13Zm5.3.14c-1.73 0-2.91-1.24-2.91-3.07 0-1.83 1.16-3.1 2.86-3.1 1.67 0 2.76 1.15 2.76 2.89v.42h-4.53c.08 1.24.73 1.93 1.85 1.93.87 0 1.45-.36 1.64-1.03h1.06c-.3 1.26-1.28 1.96-2.73 1.96ZM32 17.91c-.98 0-1.6.59-1.75 1.62h3.39c0-.97-.64-1.62-1.64-1.62ZM37.15 23h-1.13v-5.87h1.02l.12.9a2.18 2.18 0 0 1 1.95-1.07c1.55 0 2.25.95 2.25 2.45V23h-1.13v-3.34c0-1.18-.55-1.66-1.41-1.66-1.06 0-1.67.75-1.67 1.9V23Zm11.59 2.08h-.94a9.28 9.28 0 0 1-1.83-5.64c0-2.04.66-4.18 1.83-5.63h.94a9.96 9.96 0 0 0-1.62 5.63c0 2.12.6 4.23 1.62 5.64Zm.34-3.78h1.08c0 .6.45.96 1.2.96.79 0 1.25-.33 1.25-.87 0-.4-.2-.63-.8-.79l-1.04-.24c-1.04-.25-1.54-.77-1.54-1.63 0-1.08.92-1.77 2.21-1.77s2.13.72 2.15 1.84h-1.08c-.02-.59-.42-.96-1.1-.96-.71 0-1.1.31-1.1.85 0 .4.28.66.86.8l1.03.26c1 .24 1.49.7 1.49 1.57 0 1.12-.96 1.82-2.36 1.82-1.38 0-2.25-.73-2.25-1.84Zm7.51 1.7h-1.12v-4.92H54.3v-.95h1.16V15.3h1.12v1.83h1.16v.95h-1.16V23Zm3.81.14c-1.26 0-2-.7-2-1.77 0-1.08.8-1.75 2.18-1.86l1.85-.15v-.16c0-.99-.59-1.34-1.38-1.34-.95 0-1.49.42-1.49 1.13h-.98c0-1.22 1-2.03 2.52-2.03 1.45 0 2.44.77 2.44 2.36V23h-.96l-.12-.95c-.3.67-1.1 1.1-2.06 1.1Zm.33-.87c1.07 0 1.71-.7 1.71-1.8v-.31l-1.5.12c-1 .1-1.4.48-1.4 1.05 0 .63.46.94 1.19.94Zm3.98-2.2c0-1.83 1.17-3.1 2.88-3.1 1.48 0 2.51.83 2.72 2.14h-1.13c-.2-.74-.8-1.14-1.55-1.14-1.07 0-1.8.82-1.8 2.09 0 1.26.68 2.08 1.75 2.08.8 0 1.4-.42 1.6-1.12h1.14c-.23 1.27-1.32 2.12-2.74 2.12-1.73 0-2.87-1.22-2.87-3.07ZM72.66 23h-1.13v-8.83h1.13v5.72l2.6-2.76h1.42l-2.24 2.34L76.67 23h-1.3l-1.71-2.71-1 1.04V23Zm7.25.14c-1.73 0-2.92-1.24-2.92-3.07 0-1.83 1.17-3.1 2.87-3.1 1.67 0 2.76 1.15 2.76 2.89v.42H78.1c.08 1.24.73 1.93 1.84 1.93.88 0 1.46-.36 1.65-1.03h1.05c-.28 1.26-1.27 1.96-2.72 1.96Zm-.05-5.23c-.98 0-1.6.59-1.75 1.62h3.38c0-.97-.63-1.62-1.63-1.62Zm6.37 5.23c-1.7 0-2.73-1.27-2.73-3.06 0-1.8 1.04-3.12 2.78-3.12.9 0 1.66.4 2.05 1.12v-3.91h1.12V23h-1l-.1-1.07c-.39.8-1.18 1.21-2.12 1.21Zm.23-1.02c1.15 0 1.86-.85 1.86-2.07 0-1.2-.7-2.07-1.86-2.07-1.15 0-1.82.87-1.82 2.07 0 1.21.67 2.07 1.82 2.07Zm4.75 2.96h-.95a9.93 9.93 0 0 0 1.62-5.64c0-2.25-.66-4.31-1.62-5.63h.95a9.29 9.29 0 0 1 1.82 5.63c0 2.17-.73 4.26-1.82 5.64Z"
        fill="#000" />
    <path d="m13 50 42 16.5L97 62M13 93.5l41.5-5 43-17.5" stroke="#000" stroke-width=".5" stroke-dasharray="2 2" />
    <circle cx="13" cy="93" r="2.75" fill="#FFBE05" stroke="#000" stroke-width=".5" />
    <circle cx="13" cy="50" r="2.75" fill="#FFED97" stroke="#000" stroke-width=".5" />
    <circle cx="55" cy="88" r="2.75" fill="#FFBE05" stroke="#000" stroke-width=".5" />
    <circle cx="55" cy="67" r="2.75" fill="#FFED97" stroke="#000" stroke-width=".5" />
    <circle cx="97" cy="71" r="2.75" fill="#FFBE05" stroke="#000" stroke-width=".5" />
    <circle cx="97" cy="62" r="2.75" fill="#FFED97" stroke="#000" stroke-width=".5" />
</svg>