<svg viewBox="0 0 111 106" fill="none" xmlns="http://www.w3.org/2000/svg">
    <path
        d="M12.68 14.32v7.59h3.82V23h-5v-8.68h1.18Zm5.46 1.42a.75.75 0 0 1-.75-.74c0-.42.34-.75.75-.75a.75.75 0 0 1 0 1.49ZM17.59 23v-5.87h1.12V23H17.6Zm3.89 0h-1.13v-5.87h1.02l.12.9a2.18 2.18 0 0 1 1.95-1.07c1.54 0 2.25.95 2.25 2.45V23h-1.13v-3.34c0-1.18-.55-1.66-1.41-1.66-1.06 0-1.67.75-1.67 1.9V23Zm6.33-7.26a.75.75 0 0 1-.75-.74c0-.42.34-.75.75-.75a.75.75 0 0 1 0 1.49ZM27.25 23v-5.87h1.13V23h-1.13Zm5.3.14c-1.73 0-2.91-1.24-2.91-3.07 0-1.83 1.16-3.1 2.86-3.1 1.67 0 2.76 1.15 2.76 2.89v.42h-4.53c.08 1.24.73 1.93 1.85 1.93.87 0 1.45-.36 1.64-1.03h1.06c-.3 1.26-1.28 1.96-2.73 1.96Zm-.05-5.23c-.98 0-1.6.59-1.75 1.62h3.39c0-.97-.64-1.62-1.64-1.62ZM37.65 23h-1.13v-5.87h1.02l.12.9a2.18 2.18 0 0 1 1.95-1.07c1.55 0 2.25.95 2.25 2.45V23h-1.13v-3.34c0-1.18-.55-1.66-1.41-1.66-1.06 0-1.67.75-1.67 1.9V23Z"
        fill="#000" />
    <path d="m13.5 56 42 18.5 42 15.5" stroke="#000" stroke-width=".5" stroke-dasharray="2 2" />
    <path d="m13.5 93.5 41.5-5L98 71" stroke="#000" stroke-width=".5" stroke-dasharray="2 2" />
    <circle cx="13.5" cy="93" r="2.75" fill="#FFBE05" stroke="#000" stroke-width=".5" />
    <circle cx="13.5" cy="56" r="2.75" fill="#FFED97" stroke="#000" stroke-width=".5" />
    <circle cx="55.5" cy="88" r="2.75" fill="#FFBE05" stroke="#000" stroke-width=".5" />
    <circle cx="55.5" cy="75" r="2.75" fill="#FFED97" stroke="#000" stroke-width=".5" />
    <circle cx="97.5" cy="71" r="2.75" fill="#FFBE05" stroke="#000" stroke-width=".5" />
    <circle cx="97.5" cy="90" r="2.75" fill="#FFED97" stroke="#000" stroke-width=".5" />
</svg>