<svg viewBox="0 0 111 106" fill="none" xmlns="http://www.w3.org/2000/svg">
    <path
        d="M12.68 23h-1.17v-8.68h3.27c1.86 0 2.97.99 2.97 2.6 0 1.2-.6 2.07-1.68 2.42L17.83 23h-1.3l-1.63-3.43h-2.22V23Zm0-7.62v3.14h2.12c1.09 0 1.71-.58 1.71-1.58s-.65-1.56-1.73-1.56h-2.1Zm7.97 7.76c-1.26 0-2-.7-2-1.77 0-1.08.8-1.75 2.18-1.86l1.85-.15v-.16c0-.99-.6-1.34-1.38-1.34-.95 0-1.5.42-1.5 1.13h-.97c0-1.22 1-2.03 2.52-2.03 1.45 0 2.43.77 2.43 2.36V23h-.96l-.12-.95c-.3.67-1.1 1.1-2.05 1.1Zm.32-.87c1.07 0 1.72-.7 1.72-1.8v-.31l-1.5.12c-1 .1-1.4.48-1.4 1.05 0 .63.45.94 1.18.94Zm6.73.87c-1.7 0-2.74-1.27-2.74-3.06 0-1.8 1.04-3.12 2.78-3.12.9 0 1.66.4 2.06 1.12v-3.91h1.11V23h-1l-.1-1.07c-.39.8-1.18 1.21-2.11 1.21Zm.22-1.02c1.16 0 1.86-.85 1.86-2.07 0-1.2-.7-2.07-1.86-2.07-1.15 0-1.82.87-1.82 2.07 0 1.21.67 2.07 1.82 2.07Zm5.17-6.38a.75.75 0 0 1-.74-.74c0-.42.33-.75.74-.75a.75.75 0 0 1 0 1.49ZM32.54 23v-5.87h1.13V23h-1.13Zm4.48.14c-1.26 0-2-.7-2-1.77 0-1.08.8-1.75 2.18-1.86l1.85-.15v-.16c0-.99-.59-1.34-1.38-1.34-.95 0-1.49.42-1.49 1.13h-.98c0-1.22 1-2.03 2.52-2.03 1.45 0 2.43.77 2.43 2.36V23h-.96l-.12-.95c-.3.67-1.1 1.1-2.05 1.1Zm.32-.87c1.07 0 1.72-.7 1.72-1.8v-.31l-1.5.12c-1 .1-1.4.48-1.4 1.05 0 .63.45.94 1.18.94Zm5.53.73h-1.13v-8.83h1.13V23Z"
        fill="#000" />
    <mask id="a" fill="#fff">
        <path d="M55.5 57a10 10 0 1 1-9.89 8.5l5.94.9A4 4 0 1 0 55.5 63v-6Z" />
    </mask>
    <path d="M55.5 57a10 10 0 1 1-9.89 8.5l5.94.9A4 4 0 1 0 55.5 63v-6Z" fill="#FFED97" stroke="#000" mask="url(#a)" />
    <mask id="b" fill="#fff">
        <path d="M55.5 47a20 20 0 1 1-14.14 34.14l4.52-4.52A13.6 13.6 0 1 0 55.5 53.4V47Z" />
    </mask>
    <path d="M55.5 47a20 20 0 1 1-14.14 34.14l4.52-4.52A13.6 13.6 0 1 0 55.5 53.4V47Z" fill="#FBCE50" stroke="#000"
        mask="url(#b)" />
    <mask id="c" fill="#fff">
        <path d="M55.5 38a29 29 0 0 1 5.66 57.44l-1.24-6.26a22.62 22.62 0 0 0-4.42-44.8V38Z" />
    </mask>
    <path d="M55.5 38a29 29 0 0 1 5.66 57.44l-1.24-6.26a22.62 22.62 0 0 0-4.42-44.8V38Z" fill="#FFBE05" stroke="#000"
        mask="url(#c)" />
</svg>