<svg width="1028" height="182" viewBox="0 0 1028 182" fill="none" xmlns="http://www.w3.org/2000/svg">
<rect x="1.5" y="0.5" width="54" height="24" fill="#E0E3E8"/>
<rect x="1.5" y="0.5" width="54" height="24" stroke="#E0E3E8"/>
<rect x="1.5" y="24.5" width="54" height="24" fill="#F9F9F9"/>
<path d="M28.44 33.84H26.84V32.69H29.67V40H28.44V33.84Z" fill="black"/>
<rect x="1.5" y="24.5" width="54" height="24" stroke="#E0E3E8"/>
<rect x="1.5" y="48.5" width="54" height="24" fill="#F9F9F9"/>
<path d="M31.03 63.99L25.96 64V63.04L28.35 61.02C29.34 60.18 29.67 59.7 29.67 59C29.67 58.17 29.22 57.7 28.45 57.7C27.65 57.7 27.15 58.26 27.14 59.2H25.87C25.88 57.6 26.9 56.56 28.45 56.56C30.01 56.56 30.98 57.45 30.98 58.93C30.98 59.95 30.42 60.72 29.31 61.67L27.99 62.8H31.03V63.99Z" fill="black"/>
<rect x="1.5" y="48.5" width="54" height="24" stroke="#E0E3E8"/>
<rect x="1.5" y="72.5" width="54" height="24" fill="#F9F9F9"/>
<path d="M28.09 84.38H27.2V83.55L29.08 81.82H26.04V80.69H30.68V81.71L28.9 83.35C30.02 83.57 30.89 84.39 30.89 85.68C30.89 87.18 29.72 88.13 28.24 88.13C26.81 88.13 25.7 87.25 25.7 85.67H26.96C26.96 86.51 27.48 86.99 28.26 86.99C29.06 86.99 29.59 86.47 29.59 85.66C29.59 84.92 29.11 84.38 28.09 84.38Z" fill="black"/>
<rect x="1.5" y="72.5" width="54" height="24" stroke="#E0E3E8"/>
<rect x="1.5" y="96.5" width="54" height="24" fill="#F9F9F9"/>
<path d="M31.09 110.61H30.2V112H28.99V110.61H25.28V109.49L28.59 104.69H30.2V109.49H31.09V110.61ZM26.64 109.49H28.99V106.07L26.64 109.49Z" fill="black"/>
<rect x="1.5" y="96.5" width="54" height="24" stroke="#E0E3E8"/>
<rect x="1.5" y="120.5" width="54" height="24" fill="#F9F9F9"/>
<path d="M28.45 136.12C26.92 136.12 25.91 135.14 25.91 133.66H27.18C27.18 134.49 27.67 134.98 28.48 134.98C29.34 134.98 29.89 134.42 29.89 133.53C29.89 132.68 29.38 132.1 28.5 132.1C27.94 132.1 27.43 132.38 27.17 132.76L26.04 132.52L26.94 128.69H30.75V129.87H27.86L27.47 131.39C27.82 131.16 28.26 131.03 28.76 131.03C30.22 131.03 31.19 132.02 31.19 133.46C31.19 135.04 30.08 136.12 28.45 136.12Z" fill="black"/>
<rect x="1.5" y="120.5" width="54" height="24" stroke="#E0E3E8"/>
<rect x="1.5" y="144.5" width="54" height="24" fill="#F9F9F9"/>
<path d="M26.47 154.84L28.05 152.69H29.51L27.76 155.02C27.94 154.97 28.13 154.94 28.31 154.94C29.82 154.94 30.84 156 30.84 157.48C30.84 159.04 29.68 160.13 28.12 160.13C26.54 160.13 25.36 158.97 25.36 157.47C25.36 156.59 25.65 155.95 26.47 154.84ZM26.67 157.48C26.67 158.37 27.26 158.99 28.12 158.99C28.95 158.99 29.55 158.37 29.55 157.48C29.55 156.6 28.96 155.99 28.12 155.99C27.25 155.99 26.67 156.6 26.67 157.48Z" fill="black"/>
<rect x="1.5" y="144.5" width="54" height="24" stroke="#E0E3E8"/>
<rect x="55.5" y="0.5" width="54" height="24" fill="#F9F9F9"/>
<path d="M80.44 16H79.11L81.75 8.69H83.06L85.7 16H84.35L83.76 14.31H81.03L80.44 16ZM82.24 10.87L81.41 13.23H83.39L82.55 10.87C82.49 10.68 82.42 10.46 82.4 10.31C82.37 10.45 82.31 10.67 82.24 10.87Z" fill="black"/>
<rect x="55.5" y="0.5" width="54" height="24" stroke="#E0E3E8"/>
<rect x="55.5" y="24.5" width="54" height="24" fill="#F9F9F9"/>
<rect x="55.5" y="24.5" width="54" height="24" stroke="#E0E3E8"/>
<rect x="55.5" y="48.5" width="54" height="24" fill="#F9F9F9"/>
<rect x="55.5" y="48.5" width="54" height="24" stroke="#E0E3E8"/>
<rect x="55.5" y="72.5" width="54" height="24" fill="#F9F9F9"/>
<rect x="55.5" y="72.5" width="54" height="24" stroke="#E0E3E8"/>
<rect x="55.5" y="96.5" width="54" height="24" fill="#F9F9F9"/>
<rect x="55.5" y="96.5" width="54" height="24" stroke="#E0E3E8"/>
<rect x="55.5" y="120.5" width="54" height="24" fill="#F9F9F9"/>
<rect x="55.5" y="120.5" width="54" height="24" stroke="#E0E3E8"/>
<rect x="55.5" y="144.5" width="54" height="24" fill="#F9F9F9"/>
<rect x="55.5" y="144.5" width="54" height="24" stroke="#E0E3E8"/>
<rect x="109.5" y="0.5" width="54" height="24" fill="#F9F9F9"/>
<path d="M133.81 16V8.69H136.72C138.16 8.69 139.04 9.44 139.04 10.66C139.04 11.47 138.68 12.05 137.99 12.34C138.76 12.59 139.15 13.17 139.15 14.02C139.15 15.27 138.28 16 136.77 16H133.81ZM136.61 9.82H135.09V11.81H136.64C137.34 11.81 137.73 11.44 137.73 10.79C137.73 10.16 137.33 9.82 136.61 9.82ZM136.72 12.89H135.09V14.87H136.72C137.44 14.87 137.84 14.52 137.84 13.86C137.84 13.24 137.43 12.89 136.72 12.89Z" fill="black"/>
<rect x="109.5" y="0.5" width="54" height="24" stroke="#E0E3E8"/>
<rect x="109.5" y="24.5" width="54" height="24" fill="#F9F9F9"/>
<rect x="109.5" y="24.5" width="54" height="24" stroke="#E0E3E8"/>
<rect x="109.5" y="48.5" width="54" height="24" fill="#F9F9F9"/>
<path d="M118.99 64H117.6L119.3 61.58L117.6 59.06H119.02L120.11 60.74L121.16 59.06H122.53L120.85 61.56L122.48 64H121.08L120.03 62.37L118.99 64ZM122.808 61.87V60.79H126.028V61.87H122.808ZM128.575 64.13C127.525 64.13 126.885 63.52 126.885 62.59C126.885 61.68 127.545 61.11 128.715 61.02L130.195 60.91V60.8C130.195 60.13 129.795 59.86 129.175 59.86C128.455 59.86 128.055 60.16 128.055 60.68H127.015C127.015 59.61 127.895 58.91 129.235 58.91C130.565 58.91 131.385 59.63 131.385 61V64H130.315L130.225 63.27C130.015 63.78 129.345 64.13 128.575 64.13ZM128.975 63.21C129.725 63.21 130.205 62.76 130.205 62V61.74L129.175 61.82C128.415 61.89 128.125 62.14 128.125 62.54C128.125 62.99 128.425 63.21 128.975 63.21ZM132.293 61.52C132.293 59.99 133.303 58.91 134.763 58.91C136.113 58.91 137.033 59.66 137.163 60.85H135.943C135.803 60.29 135.393 60 134.813 60C134.033 60 133.513 60.59 133.513 61.52C133.513 62.45 133.993 63.03 134.773 63.03C135.383 63.03 135.813 62.73 135.943 62.19H137.173C137.023 63.34 136.063 64.13 134.773 64.13C133.273 64.13 132.293 63.09 132.293 61.52ZM139.301 64H138.081V56.56H139.311V59.7C139.621 59.22 140.201 58.91 140.911 58.91C142.131 58.91 142.771 59.68 142.771 60.96V64H141.551V61.25C141.551 60.42 141.141 60.02 140.521 60.02C139.751 60.02 139.301 60.56 139.301 61.3V64ZM143.531 62.5H144.691C144.701 62.93 145.021 63.2 145.581 63.2C146.151 63.2 146.461 62.97 146.461 62.61C146.461 62.36 146.331 62.18 145.891 62.08L145.001 61.87C144.111 61.67 143.681 61.25 143.681 60.46C143.681 59.49 144.501 58.91 145.641 58.91C146.751 58.91 147.501 59.55 147.511 60.51H146.351C146.341 60.09 146.061 59.82 145.591 59.82C145.111 59.82 144.831 60.04 144.831 60.41C144.831 60.69 145.051 60.87 145.471 60.97L146.361 61.18C147.191 61.37 147.611 61.75 147.611 62.51C147.611 63.51 146.761 64.13 145.541 64.13C144.311 64.13 143.531 63.47 143.531 62.5ZM149.15 58.07C148.73 58.07 148.4 57.74 148.4 57.33C148.4 56.92 148.73 56.6 149.15 56.6C149.55 56.6 149.88 56.92 149.88 57.33C149.88 57.74 149.55 58.07 149.15 58.07ZM148.54 64V59.06H149.76V64H148.54ZM150.641 62.5H151.801C151.811 62.93 152.131 63.2 152.691 63.2C153.261 63.2 153.571 62.97 153.571 62.61C153.571 62.36 153.441 62.18 153.001 62.08L152.111 61.87C151.221 61.67 150.791 61.25 150.791 60.46C150.791 59.49 151.611 58.91 152.751 58.91C153.861 58.91 154.611 59.55 154.621 60.51H153.461C153.451 60.09 153.171 59.82 152.701 59.82C152.221 59.82 151.941 60.04 151.941 60.41C151.941 60.69 152.161 60.87 152.581 60.97L153.471 61.18C154.301 61.37 154.721 61.75 154.721 62.51C154.721 63.51 153.871 64.13 152.651 64.13C151.421 64.13 150.641 63.47 150.641 62.5Z" fill="black"/>
<rect x="109.5" y="48.5" width="54" height="24" stroke="#E0E3E8"/>
<rect x="109.5" y="72.5" width="54" height="24" fill="#F9F9F9"/>
<path d="M115.35 88H114.13V83.06H115.25L115.35 83.64C115.6 83.23 116.1 82.91 116.81 82.91C117.56 82.91 118.08 83.28 118.34 83.85C118.59 83.28 119.17 82.91 119.92 82.91C121.12 82.91 121.78 83.63 121.78 84.77V88H120.57V85.09C120.57 84.38 120.19 84.01 119.61 84.01C119.02 84.01 118.57 84.39 118.57 85.2V88H117.35V85.08C117.35 84.39 116.98 84.02 116.4 84.02C115.82 84.02 115.35 84.4 115.35 85.2V88ZM125.188 88.13C123.718 88.13 122.688 87.06 122.688 85.53C122.688 83.98 123.698 82.91 125.148 82.91C126.628 82.91 127.568 83.9 127.568 85.44V85.81L123.848 85.82C123.938 86.69 124.398 87.13 125.208 87.13C125.878 87.13 126.318 86.87 126.458 86.4H127.588C127.378 87.48 126.478 88.13 125.188 88.13ZM125.158 83.91C124.438 83.91 123.998 84.3 123.878 85.04H126.358C126.358 84.36 125.888 83.91 125.158 83.91ZM129.965 88.13C128.915 88.13 128.275 87.52 128.275 86.59C128.275 85.68 128.935 85.11 130.105 85.02L131.585 84.91V84.8C131.585 84.13 131.185 83.86 130.565 83.86C129.845 83.86 129.445 84.16 129.445 84.68H128.405C128.405 83.61 129.285 82.91 130.625 82.91C131.955 82.91 132.775 83.63 132.775 85V88H131.705L131.615 87.27C131.405 87.78 130.735 88.13 129.965 88.13ZM130.365 87.21C131.115 87.21 131.595 86.76 131.595 86V85.74L130.565 85.82C129.805 85.89 129.515 86.14 129.515 86.54C129.515 86.99 129.815 87.21 130.365 87.21ZM133.594 86.5H134.754C134.764 86.93 135.084 87.2 135.644 87.2C136.214 87.2 136.524 86.97 136.524 86.61C136.524 86.36 136.394 86.18 135.954 86.08L135.064 85.87C134.174 85.67 133.744 85.25 133.744 84.46C133.744 83.49 134.564 82.91 135.704 82.91C136.814 82.91 137.564 83.55 137.574 84.51H136.414C136.404 84.09 136.124 83.82 135.654 83.82C135.174 83.82 134.894 84.04 134.894 84.41C134.894 84.69 135.114 84.87 135.534 84.97L136.424 85.18C137.254 85.37 137.674 85.75 137.674 86.51C137.674 87.51 136.824 88.13 135.604 88.13C134.374 88.13 133.594 87.47 133.594 86.5ZM141.953 83.06H143.173V88H142.043L141.953 87.34C141.653 87.81 141.013 88.13 140.353 88.13C139.213 88.13 138.543 87.36 138.543 86.15V83.06H139.763V85.72C139.763 86.66 140.133 87.04 140.813 87.04C141.583 87.04 141.953 86.59 141.953 85.65V83.06ZM147.533 83.04V84.17H147.083C146.203 84.17 145.653 84.64 145.653 85.6V88H144.433V83.07H145.583L145.653 83.79C145.863 83.3 146.333 82.97 146.993 82.97C147.163 82.97 147.333 82.99 147.533 83.04ZM150.403 88.13C148.933 88.13 147.903 87.06 147.903 85.53C147.903 83.98 148.913 82.91 150.363 82.91C151.843 82.91 152.783 83.9 152.783 85.44V85.81L149.063 85.82C149.153 86.69 149.613 87.13 150.423 87.13C151.093 87.13 151.533 86.87 151.673 86.4H152.803C152.593 87.48 151.693 88.13 150.403 88.13ZM150.373 83.91C149.653 83.91 149.213 84.3 149.093 85.04H151.573C151.573 84.36 151.103 83.91 150.373 83.91ZM155.789 88.13C154.359 88.13 153.469 87.08 153.469 85.55C153.469 84.01 154.369 82.91 155.859 82.91C156.549 82.91 157.159 83.2 157.469 83.69V80.56H158.679V88H157.559L157.479 87.23C157.179 87.8 156.539 88.13 155.789 88.13ZM156.059 87.01C156.909 87.01 157.459 86.4 157.459 85.51C157.459 84.62 156.909 84 156.059 84C155.209 84 154.689 84.63 154.689 85.51C154.689 86.39 155.209 87.01 156.059 87.01Z" fill="black"/>
<rect x="109.5" y="72.5" width="54" height="24" stroke="#E0E3E8"/>
<rect x="109.5" y="96.5" width="54" height="24" fill="#F9F9F9"/>
<path d="M126.31 112H125.09V108.08H124.14V107.06H125.09V105.52H126.31V107.06H127.27V108.08H126.31V112ZM131.128 107.04V108.17H130.678C129.798 108.17 129.248 108.64 129.248 109.6V112H128.028V107.07H129.178L129.248 107.79C129.458 107.3 129.928 106.97 130.588 106.97C130.758 106.97 130.928 106.99 131.128 107.04ZM133.998 112.13C132.528 112.13 131.498 111.06 131.498 109.53C131.498 107.98 132.508 106.91 133.958 106.91C135.438 106.91 136.378 107.9 136.378 109.44V109.81L132.658 109.82C132.748 110.69 133.208 111.13 134.018 111.13C134.688 111.13 135.128 110.87 135.268 110.4H136.398C136.188 111.48 135.288 112.13 133.998 112.13ZM133.968 107.91C133.248 107.91 132.808 108.3 132.688 109.04H135.168C135.168 108.36 134.698 107.91 133.968 107.91ZM138.575 112H137.355V107.06H138.485L138.585 107.7C138.895 107.2 139.495 106.91 140.165 106.91C141.405 106.91 142.045 107.68 142.045 108.96V112H140.825V109.25C140.825 108.42 140.415 108.02 139.785 108.02C139.035 108.02 138.575 108.54 138.575 109.34V112ZM145.273 112.13C143.843 112.13 142.953 111.08 142.953 109.55C142.953 108.01 143.853 106.91 145.343 106.91C146.033 106.91 146.643 107.2 146.953 107.69V104.56H148.163V112H147.043L146.963 111.23C146.663 111.8 146.023 112.13 145.273 112.13ZM145.543 111.01C146.393 111.01 146.943 110.4 146.943 109.51C146.943 108.62 146.393 108 145.543 108C144.693 108 144.173 108.63 144.173 109.51C144.173 110.39 144.693 111.01 145.543 111.01Z" fill="black"/>
<rect x="109.5" y="96.5" width="54" height="24" stroke="#E0E3E8"/>
<rect x="109.5" y="120.5" width="54" height="24" fill="#F9F9F9"/>
<path d="M124.81 136H123.59V132.08H122.64V131.06H123.59V129.52H124.81V131.06H125.77V132.08H124.81V136ZM127.969 136.13C126.919 136.13 126.279 135.52 126.279 134.59C126.279 133.68 126.939 133.11 128.109 133.02L129.589 132.91V132.8C129.589 132.13 129.189 131.86 128.569 131.86C127.849 131.86 127.449 132.16 127.449 132.68H126.409C126.409 131.61 127.289 130.91 128.629 130.91C129.959 130.91 130.779 131.63 130.779 133V136H129.709L129.619 135.27C129.409 135.78 128.739 136.13 127.969 136.13ZM128.369 135.21C129.119 135.21 129.599 134.76 129.599 134V133.74L128.569 133.82C127.809 133.89 127.519 134.14 127.519 134.54C127.519 134.99 127.819 135.21 128.369 135.21ZM135.078 131.04V132.17H134.628C133.748 132.17 133.198 132.64 133.198 133.6V136H131.978V131.07H133.128L133.198 131.79C133.408 131.3 133.878 130.97 134.538 130.97C134.708 130.97 134.878 130.99 135.078 131.04ZM135.496 133.42C135.496 131.98 136.436 130.9 137.846 130.9C138.586 130.9 139.166 131.21 139.456 131.74L139.526 131.06H140.656V135.75C140.656 137.4 139.666 138.43 138.066 138.43C136.646 138.43 135.676 137.62 135.526 136.3H136.746C136.826 136.94 137.316 137.32 138.066 137.32C138.906 137.32 139.446 136.79 139.446 135.97V135.15C139.136 135.61 138.526 135.9 137.816 135.9C136.416 135.9 135.496 134.85 135.496 133.42ZM136.726 133.39C136.726 134.22 137.256 134.84 138.056 134.84C138.896 134.84 139.416 134.25 139.416 133.39C139.416 132.55 138.906 131.97 138.056 131.97C137.246 131.97 136.726 132.58 136.726 133.39ZM144.129 136.13C142.659 136.13 141.629 135.06 141.629 133.53C141.629 131.98 142.639 130.91 144.089 130.91C145.569 130.91 146.509 131.9 146.509 133.44V133.81L142.789 133.82C142.879 134.69 143.339 135.13 144.149 135.13C144.819 135.13 145.259 134.87 145.399 134.4H146.529C146.319 135.48 145.419 136.13 144.129 136.13ZM144.099 131.91C143.379 131.91 142.939 132.3 142.819 133.04H145.299C145.299 132.36 144.829 131.91 144.099 131.91ZM149.117 136H147.897V132.08H146.947V131.06H147.897V129.52H149.117V131.06H150.077V132.08H149.117V136Z" fill="black"/>
<rect x="109.5" y="120.5" width="54" height="24" stroke="#E0E3E8"/>
<rect x="109.5" y="144.5" width="54" height="24" fill="#F9F9F9"/>
<rect x="109.5" y="144.5" width="54" height="24" stroke="#E0E3E8"/>
<rect x="163.5" y="0.5" width="54" height="24" fill="#F9F9F9"/>
<path d="M190.4 16.12C188.27 16.12 186.89 14.64 186.89 12.35C186.89 10.08 188.32 8.57 190.46 8.57C192.19 8.57 193.48 9.58 193.73 11.15H192.38C192.13 10.3 191.4 9.8 190.43 9.8C189.08 9.8 188.23 10.78 188.23 12.34C188.23 13.89 189.09 14.89 190.43 14.89C191.42 14.89 192.18 14.37 192.42 13.56H193.75C193.47 15.1 192.13 16.12 190.4 16.12Z" fill="black"/>
<rect x="163.5" y="0.5" width="54" height="24" stroke="#E0E3E8"/>
<rect x="163.5" y="24.5" width="54" height="24" fill="#F9F9F9"/>
<rect x="163.5" y="24.5" width="54" height="24" stroke="#E0E3E8"/>
<rect x="163.5" y="48.5" width="54" height="24" fill="#F9F9F9"/>
<path d="M183.67 64H178.95V63.43L181.24 61.43C182.56 60.28 182.9 59.78 182.9 58.93C182.9 57.96 182.32 57.37 181.37 57.37C180.38 57.37 179.73 58.09 179.7 59.2H178.98C179.02 57.7 179.97 56.71 181.38 56.71C182.73 56.71 183.63 57.58 183.63 58.89C183.63 59.93 183.16 60.62 181.73 61.87L180.06 63.33H183.67V64ZM184.665 60.42C184.665 58.2 185.755 56.7 187.535 56.7C189.305 56.7 190.395 58.2 190.395 60.42C190.395 62.65 189.325 64.13 187.535 64.13C185.735 64.13 184.665 62.65 184.665 60.42ZM185.375 60.42C185.375 62.28 186.165 63.48 187.535 63.48C188.905 63.48 189.695 62.28 189.695 60.42C189.695 58.55 188.905 57.36 187.535 57.36C186.165 57.36 185.375 58.55 185.375 60.42ZM196.111 64H191.391V63.43L193.681 61.43C195.001 60.28 195.341 59.78 195.341 58.93C195.341 57.96 194.761 57.37 193.811 57.37C192.821 57.37 192.171 58.09 192.141 59.2H191.421C191.461 57.7 192.411 56.71 193.821 56.71C195.171 56.71 196.071 57.58 196.071 58.89C196.071 59.93 195.601 60.62 194.171 61.87L192.501 63.33H196.111V64ZM201.746 64H197.026V63.43L199.316 61.43C200.636 60.28 200.976 59.78 200.976 58.93C200.976 57.96 200.396 57.37 199.446 57.37C198.456 57.37 197.806 58.09 197.776 59.2H197.056C197.096 57.7 198.046 56.71 199.456 56.71C200.806 56.71 201.706 57.58 201.706 58.89C201.706 59.93 201.236 60.62 199.806 61.87L198.136 63.33H201.746V64Z" fill="black"/>
<rect x="163.5" y="48.5" width="54" height="24" stroke="#E0E3E8"/>
<rect x="163.5" y="72.5" width="54" height="24" fill="#F9F9F9"/>
<path d="M183.55 84.42C183.55 82.2 184.64 80.7 186.42 80.7C188.19 80.7 189.28 82.2 189.28 84.42C189.28 86.65 188.21 88.13 186.42 88.13C184.62 88.13 183.55 86.65 183.55 84.42ZM184.26 84.42C184.26 86.28 185.05 87.48 186.42 87.48C187.79 87.48 188.58 86.28 188.58 84.42C188.58 82.55 187.79 81.36 186.42 81.36C185.05 81.36 184.26 82.55 184.26 84.42ZM190.677 88.11C190.337 88.11 190.047 87.83 190.047 87.5C190.047 87.16 190.337 86.87 190.677 86.87C191.017 86.87 191.307 87.16 191.307 87.5C191.307 87.83 191.017 88.11 190.677 88.11ZM194.621 88.12C193.181 88.12 192.261 87.22 192.261 85.81H192.981C192.981 86.84 193.611 87.46 194.631 87.46C195.711 87.46 196.411 86.74 196.411 85.68C196.411 84.68 195.761 83.89 194.631 83.89C193.971 83.89 193.371 84.19 192.981 84.62L192.411 84.44L193.271 80.84H196.731V81.5H193.791L193.251 83.75C193.651 83.43 194.171 83.25 194.731 83.25C196.221 83.25 197.141 84.32 197.141 85.66C197.141 87.1 196.121 88.12 194.621 88.12Z" fill="black"/>
<rect x="163.5" y="72.5" width="54" height="24" stroke="#E0E3E8"/>
<rect x="163.5" y="96.5" width="54" height="24" fill="#F9F9F9"/>
<rect x="163.5" y="96.5" width="54" height="24" stroke="#E0E3E8"/>
<rect x="163.5" y="120.5" width="54" height="24" fill="#F9F9F9"/>
<rect x="163.5" y="120.5" width="54" height="24" stroke="#E0E3E8"/>
<rect x="163.5" y="144.5" width="54" height="24" fill="#F9F9F9"/>
<rect x="163.5" y="144.5" width="54" height="24" stroke="#E0E3E8"/>
<rect x="217.5" y="0.5" width="54" height="24" fill="#F9F9F9"/>
<path d="M243.94 16H241.31V8.69H243.87C246.03 8.69 247.52 10.18 247.52 12.36C247.52 14.51 246.06 16 243.94 16ZM243.75 9.87H242.59V14.82H243.82C245.28 14.82 246.17 13.88 246.17 12.36C246.17 10.81 245.26 9.87 243.75 9.87Z" fill="black"/>
<rect x="217.5" y="0.5" width="54" height="24" stroke="#E0E3E8"/>
<rect x="217.5" y="24.5" width="54" height="24" fill="#F9F9F9"/>
<rect x="217.5" y="24.5" width="54" height="24" stroke="#E0E3E8"/>
<rect x="217.5" y="48.5" width="54" height="24" fill="#F9F9F9"/>
<path d="M237.67 64H232.95V63.43L235.24 61.43C236.56 60.28 236.9 59.78 236.9 58.93C236.9 57.96 236.32 57.37 235.37 57.37C234.38 57.37 233.73 58.09 233.7 59.2H232.98C233.02 57.7 233.97 56.71 235.38 56.71C236.73 56.71 237.63 57.58 237.63 58.89C237.63 59.93 237.16 60.62 235.73 61.87L234.06 63.33H237.67V64ZM238.665 60.42C238.665 58.2 239.755 56.7 241.535 56.7C243.305 56.7 244.395 58.2 244.395 60.42C244.395 62.65 243.325 64.13 241.535 64.13C239.735 64.13 238.665 62.65 238.665 60.42ZM239.375 60.42C239.375 62.28 240.165 63.48 241.535 63.48C242.905 63.48 243.695 62.28 243.695 60.42C243.695 58.55 242.905 57.36 241.535 57.36C240.165 57.36 239.375 58.55 239.375 60.42ZM250.111 64H245.391V63.43L247.681 61.43C249.001 60.28 249.341 59.78 249.341 58.93C249.341 57.96 248.761 57.37 247.811 57.37C246.821 57.37 246.171 58.09 246.141 59.2H245.421C245.461 57.7 246.411 56.71 247.821 56.71C249.171 56.71 250.071 57.58 250.071 58.89C250.071 59.93 249.601 60.62 248.171 61.87L246.501 63.33H250.111V64ZM253.106 60.16H252.536V59.66L254.746 57.48H251.316V56.84H255.656V57.42L253.516 59.55C254.856 59.62 255.816 60.47 255.816 61.77C255.816 63.19 254.776 64.12 253.326 64.12C251.916 64.12 250.966 63.25 250.966 61.82H251.676C251.676 62.85 252.316 63.47 253.326 63.47C254.396 63.47 255.086 62.79 255.086 61.75C255.086 60.77 254.386 60.16 253.106 60.16Z" fill="black"/>
<rect x="217.5" y="48.5" width="54" height="24" stroke="#E0E3E8"/>
<rect x="217.5" y="72.5" width="54" height="24" fill="#F9F9F9"/>
<path d="M238.05 84.42C238.05 82.2 239.14 80.7 240.92 80.7C242.69 80.7 243.78 82.2 243.78 84.42C243.78 86.65 242.71 88.13 240.92 88.13C239.12 88.13 238.05 86.65 238.05 84.42ZM238.76 84.42C238.76 86.28 239.55 87.48 240.92 87.48C242.29 87.48 243.08 86.28 243.08 84.42C243.08 82.55 242.29 81.36 240.92 81.36C239.55 81.36 238.76 82.55 238.76 84.42ZM245.177 88.11C244.837 88.11 244.547 87.83 244.547 87.5C244.547 87.16 244.837 86.87 245.177 86.87C245.517 86.87 245.807 87.16 245.807 87.5C245.807 87.83 245.517 88.11 245.177 88.11ZM246.272 80.84H251.142V81.5L248.322 88H247.582L250.412 81.5H246.272V80.84Z" fill="black"/>
<rect x="217.5" y="72.5" width="54" height="24" stroke="#E0E3E8"/>
<rect x="217.5" y="96.5" width="54" height="24" fill="#F9F9F9"/>
<path d="M237.55 108.42C237.55 106.2 238.64 104.7 240.42 104.7C242.19 104.7 243.28 106.2 243.28 108.42C243.28 110.65 242.21 112.13 240.42 112.13C238.62 112.13 237.55 110.65 237.55 108.42ZM238.26 108.42C238.26 110.28 239.05 111.48 240.42 111.48C241.79 111.48 242.58 110.28 242.58 108.42C242.58 106.55 241.79 105.36 240.42 105.36C239.05 105.36 238.26 106.55 238.26 108.42ZM244.677 112.11C244.337 112.11 244.047 111.83 244.047 111.5C244.047 111.16 244.337 110.87 244.677 110.87C245.017 110.87 245.307 111.16 245.307 111.5C245.307 111.83 245.017 112.11 244.677 112.11ZM246.338 110.05C246.338 109.17 246.868 108.47 247.718 108.18C246.998 107.89 246.588 107.3 246.588 106.56C246.588 105.46 247.528 104.71 248.898 104.71C250.258 104.71 251.168 105.46 251.168 106.57C251.168 107.32 250.768 107.91 250.058 108.18C250.888 108.44 251.438 109.16 251.438 110.06C251.438 111.28 250.408 112.12 248.888 112.12C247.368 112.12 246.338 111.28 246.338 110.05ZM247.268 106.58C247.268 107.37 247.908 107.9 248.888 107.9C249.858 107.9 250.488 107.39 250.488 106.6C250.488 105.83 249.858 105.35 248.888 105.35C247.908 105.35 247.268 105.83 247.268 106.58ZM247.048 109.99C247.048 110.88 247.788 111.47 248.898 111.47C249.988 111.47 250.728 110.88 250.728 109.99C250.728 109.11 250.008 108.54 248.878 108.54C247.768 108.54 247.048 109.11 247.048 109.99Z" fill="black"/>
<rect x="217.5" y="96.5" width="54" height="24" stroke="#E0E3E8"/>
<rect x="217.5" y="120.5" width="54" height="24" fill="#F9F9F9"/>
<rect x="217.5" y="120.5" width="54" height="24" stroke="#E0E3E8"/>
<rect x="217.5" y="144.5" width="54" height="24" fill="#F9F9F9"/>
<rect x="217.5" y="144.5" width="54" height="24" stroke="#E0E3E8"/>
<rect x="271.5" y="0.5" width="54" height="24" fill="#F9F9F9"/>
<path d="M300.85 16H296.31V8.69H300.85V9.87H297.59V11.75H300.51V12.88H297.59V14.82H300.85V16Z" fill="black"/>
<rect x="271.5" y="0.5" width="54" height="24" stroke="#E0E3E8"/>
<rect x="271.5" y="24.5" width="54" height="24" fill="#F9F9F9"/>
<rect x="271.5" y="24.5" width="54" height="24" stroke="#E0E3E8"/>
<rect x="271.5" y="48.5" width="54" height="24" fill="#F9F9F9"/>
<path d="M291.17 64H286.45V63.43L288.74 61.43C290.06 60.28 290.4 59.78 290.4 58.93C290.4 57.96 289.82 57.37 288.87 57.37C287.88 57.37 287.23 58.09 287.2 59.2H286.48C286.52 57.7 287.47 56.71 288.88 56.71C290.23 56.71 291.13 57.58 291.13 58.89C291.13 59.93 290.66 60.62 289.23 61.87L287.56 63.33H291.17V64ZM292.165 60.42C292.165 58.2 293.255 56.7 295.035 56.7C296.805 56.7 297.895 58.2 297.895 60.42C297.895 62.65 296.825 64.13 295.035 64.13C293.235 64.13 292.165 62.65 292.165 60.42ZM292.875 60.42C292.875 62.28 293.665 63.48 295.035 63.48C296.405 63.48 297.195 62.28 297.195 60.42C297.195 58.55 296.405 57.36 295.035 57.36C293.665 57.36 292.875 58.55 292.875 60.42ZM303.611 64H298.891V63.43L301.181 61.43C302.501 60.28 302.841 59.78 302.841 58.93C302.841 57.96 302.261 57.37 301.311 57.37C300.321 57.37 299.671 58.09 299.641 59.2H298.921C298.961 57.7 299.911 56.71 301.321 56.71C302.671 56.71 303.571 57.58 303.571 58.89C303.571 59.93 303.101 60.62 301.671 61.87L300.001 63.33H303.611V64ZM309.473 62.48H308.633V64H307.933V62.48H304.173V61.84L307.673 56.84H308.633V61.84H309.473V62.48ZM304.953 61.84H307.933V57.58L304.953 61.84Z" fill="black"/>
<rect x="271.5" y="48.5" width="54" height="24" stroke="#E0E3E8"/>
<rect x="271.5" y="72.5" width="54" height="24" fill="#F9F9F9"/>
<rect x="271.5" y="72.5" width="54" height="24" stroke="#E0E3E8"/>
<rect x="271.5" y="96.5" width="54" height="24" fill="#F9F9F9"/>
<path d="M291.55 108.42C291.55 106.2 292.64 104.7 294.42 104.7C296.19 104.7 297.28 106.2 297.28 108.42C297.28 110.65 296.21 112.13 294.42 112.13C292.62 112.13 291.55 110.65 291.55 108.42ZM292.26 108.42C292.26 110.28 293.05 111.48 294.42 111.48C295.79 111.48 296.58 110.28 296.58 108.42C296.58 106.55 295.79 105.36 294.42 105.36C293.05 105.36 292.26 106.55 292.26 108.42ZM298.677 112.11C298.337 112.11 298.047 111.83 298.047 111.5C298.047 111.16 298.337 110.87 298.677 110.87C299.017 110.87 299.307 111.16 299.307 111.5C299.307 111.83 299.017 112.11 298.677 112.11ZM304.371 109.58L302.581 112H301.741L303.621 109.5C303.291 109.68 302.981 109.74 302.641 109.74C301.151 109.74 300.161 108.65 300.161 107.25C300.161 105.79 301.271 104.71 302.701 104.71C304.141 104.71 305.271 105.82 305.271 107.26C305.271 108.09 305.051 108.67 304.371 109.58ZM304.551 107.25C304.551 106.16 303.791 105.37 302.701 105.37C301.641 105.37 300.881 106.16 300.881 107.25C300.881 108.33 301.641 109.11 302.701 109.11C303.791 109.11 304.551 108.33 304.551 107.25Z" fill="black"/>
<rect x="271.5" y="96.5" width="54" height="24" stroke="#E0E3E8"/>
<rect x="271.5" y="120.5" width="54" height="24" fill="#F9F9F9"/>
<path d="M300.67 136H295.95V135.43L298.24 133.43C299.56 132.28 299.9 131.78 299.9 130.93C299.9 129.96 299.32 129.37 298.37 129.37C297.38 129.37 296.73 130.09 296.7 131.2H295.98C296.02 129.7 296.97 128.71 298.38 128.71C299.73 128.71 300.63 129.58 300.63 130.89C300.63 131.93 300.16 132.62 298.73 133.87L297.06 135.33H300.67V136Z" fill="black"/>
<rect x="271.5" y="120.5" width="54" height="24" stroke="#E0E3E8"/>
<rect x="271.5" y="144.5" width="54" height="24" fill="#F9F9F9"/>
<rect x="271.5" y="144.5" width="54" height="24" stroke="#E0E3E8"/>
<rect x="325.5" y="0.5" width="54" height="24" fill="#F9F9F9"/>
<path d="M354.31 13.01H351.59V16H350.31V8.69H354.83V9.87H351.59V11.86H354.31V13.01Z" fill="black"/>
<rect x="325.5" y="0.5" width="54" height="24" stroke="#E0E3E8"/>
<rect x="325.5" y="24.5" width="54" height="24" fill="#F9F9F9"/>
<rect x="325.5" y="24.5" width="54" height="24" stroke="#E0E3E8"/>
<rect x="325.5" y="48.5" width="54" height="24" fill="#F9F9F9"/>
<path d="M345.67 64H340.95V63.43L343.24 61.43C344.56 60.28 344.9 59.78 344.9 58.93C344.9 57.96 344.32 57.37 343.37 57.37C342.38 57.37 341.73 58.09 341.7 59.2H340.98C341.02 57.7 341.97 56.71 343.38 56.71C344.73 56.71 345.63 57.58 345.63 58.89C345.63 59.93 345.16 60.62 343.73 61.87L342.06 63.33H345.67V64ZM346.665 60.42C346.665 58.2 347.755 56.7 349.535 56.7C351.305 56.7 352.395 58.2 352.395 60.42C352.395 62.65 351.325 64.13 349.535 64.13C347.735 64.13 346.665 62.65 346.665 60.42ZM347.375 60.42C347.375 62.28 348.165 63.48 349.535 63.48C350.905 63.48 351.695 62.28 351.695 60.42C351.695 58.55 350.905 57.36 349.535 57.36C348.165 57.36 347.375 58.55 347.375 60.42ZM358.111 64H353.391V63.43L355.681 61.43C357.001 60.28 357.341 59.78 357.341 58.93C357.341 57.96 356.761 57.37 355.811 57.37C354.821 57.37 354.171 58.09 354.141 59.2H353.421C353.461 57.7 354.411 56.71 355.821 56.71C357.171 56.71 358.071 57.58 358.071 58.89C358.071 59.93 357.601 60.62 356.171 61.87L354.501 63.33H358.111V64ZM361.398 64.12C359.958 64.12 359.038 63.22 359.038 61.81H359.758C359.758 62.84 360.388 63.46 361.408 63.46C362.488 63.46 363.188 62.74 363.188 61.68C363.188 60.68 362.538 59.89 361.408 59.89C360.748 59.89 360.148 60.19 359.758 60.62L359.188 60.44L360.048 56.84H363.508V57.5H360.568L360.028 59.75C360.428 59.43 360.948 59.25 361.508 59.25C362.998 59.25 363.918 60.32 363.918 61.66C363.918 63.1 362.898 64.12 361.398 64.12Z" fill="black"/>
<rect x="325.5" y="48.5" width="54" height="24" stroke="#E0E3E8"/>
<rect x="325.5" y="72.5" width="54" height="24" fill="#F9F9F9"/>
<rect x="325.5" y="72.5" width="54" height="24" stroke="#E0E3E8"/>
<rect x="325.5" y="96.5" width="54" height="24" fill="#F9F9F9"/>
<path d="M348.31 105.49H346.85V104.84H349V112H348.31V105.49ZM351.15 112.11C350.81 112.11 350.52 111.83 350.52 111.5C350.52 111.16 350.81 110.87 351.15 110.87C351.49 110.87 351.78 111.16 351.78 111.5C351.78 111.83 351.49 112.11 351.15 112.11ZM357.627 112H352.907V111.43L355.197 109.43C356.517 108.28 356.857 107.78 356.857 106.93C356.857 105.96 356.277 105.37 355.327 105.37C354.337 105.37 353.687 106.09 353.657 107.2H352.937C352.977 105.7 353.927 104.71 355.337 104.71C356.687 104.71 357.587 105.58 357.587 106.89C357.587 107.93 357.117 108.62 355.687 109.87L354.017 111.33H357.627V112Z" fill="black"/>
<rect x="325.5" y="96.5" width="54" height="24" stroke="#E0E3E8"/>
<rect x="325.5" y="120.5" width="54" height="24" fill="#F9F9F9"/>
<rect x="325.5" y="120.5" width="54" height="24" stroke="#E0E3E8"/>
<rect x="325.5" y="144.5" width="54" height="24" fill="#F9F9F9"/>
<rect x="325.5" y="144.5" width="54" height="24" stroke="#E0E3E8"/>
<rect x="379.5" y="0.5" width="54" height="24" fill="#F9F9F9"/>
<path d="M406.51 9.77C405.06 9.77 404.23 10.82 404.23 12.4C404.23 14.03 405.17 14.92 406.52 14.92C407.79 14.92 408.56 14.22 408.56 13.05V13.02H406.35V11.89H409.75V16H408.67L408.59 15.16C408.19 15.72 407.36 16.11 406.37 16.11C404.32 16.11 402.89 14.62 402.89 12.37C402.89 10.15 404.34 8.57 406.54 8.57C408.21 8.57 409.5 9.54 409.71 11.03H408.36C408.13 10.17 407.39 9.77 406.51 9.77Z" fill="black"/>
<rect x="379.5" y="0.5" width="54" height="24" stroke="#E0E3E8"/>
<rect x="379.5" y="24.5" width="54" height="24" fill="#F9F9F9"/>
<rect x="379.5" y="24.5" width="54" height="24" stroke="#E0E3E8"/>
<rect x="379.5" y="48.5" width="54" height="24" fill="#F9F9F9"/>
<path d="M399.17 64H394.45V63.43L396.74 61.43C398.06 60.28 398.4 59.78 398.4 58.93C398.4 57.96 397.82 57.37 396.87 57.37C395.88 57.37 395.23 58.09 395.2 59.2H394.48C394.52 57.7 395.47 56.71 396.88 56.71C398.23 56.71 399.13 57.58 399.13 58.89C399.13 59.93 398.66 60.62 397.23 61.87L395.56 63.33H399.17V64ZM400.165 60.42C400.165 58.2 401.255 56.7 403.035 56.7C404.805 56.7 405.895 58.2 405.895 60.42C405.895 62.65 404.825 64.13 403.035 64.13C401.235 64.13 400.165 62.65 400.165 60.42ZM400.875 60.42C400.875 62.28 401.665 63.48 403.035 63.48C404.405 63.48 405.195 62.28 405.195 60.42C405.195 58.55 404.405 57.36 403.035 57.36C401.665 57.36 400.875 58.55 400.875 60.42ZM411.611 64H406.891V63.43L409.181 61.43C410.501 60.28 410.841 59.78 410.841 58.93C410.841 57.96 410.261 57.37 409.311 57.37C408.321 57.37 407.671 58.09 407.641 59.2H406.921C406.961 57.7 407.911 56.71 409.321 56.71C410.671 56.71 411.571 57.58 411.571 58.89C411.571 59.93 411.101 60.62 409.671 61.87L408.001 63.33H411.611V64ZM413.417 59.25L415.207 56.84H416.047L414.167 59.33C414.507 59.16 414.817 59.09 415.147 59.09C416.637 59.09 417.627 60.18 417.627 61.58C417.627 63.05 416.517 64.12 415.087 64.12C413.647 64.12 412.517 63.01 412.517 61.58C412.517 60.75 412.747 60.17 413.417 59.25ZM413.247 61.59C413.247 62.68 413.997 63.47 415.087 63.47C416.147 63.47 416.907 62.68 416.907 61.59C416.907 60.5 416.147 59.72 415.087 59.72C413.997 59.72 413.247 60.5 413.247 61.59Z" fill="black"/>
<rect x="379.5" y="48.5" width="54" height="24" stroke="#E0E3E8"/>
<rect x="379.5" y="72.5" width="54" height="24" fill="#F9F9F9"/>
<rect x="379.5" y="72.5" width="54" height="24" stroke="#E0E3E8"/>
<rect x="379.5" y="96.5" width="54" height="24" fill="#F9F9F9"/>
<path d="M404.17 112H399.45V111.43L401.74 109.43C403.06 108.28 403.4 107.78 403.4 106.93C403.4 105.96 402.82 105.37 401.87 105.37C400.88 105.37 400.23 106.09 400.2 107.2H399.48C399.52 105.7 400.47 104.71 401.88 104.71C403.23 104.71 404.13 105.58 404.13 106.89C404.13 107.93 403.66 108.62 402.23 109.87L400.56 111.33H404.17V112ZM405.964 112.11C405.624 112.11 405.334 111.83 405.334 111.5C405.334 111.16 405.624 110.87 405.964 110.87C406.304 110.87 406.594 111.16 406.594 111.5C406.594 111.83 406.304 112.11 405.964 112.11ZM407.625 110.05C407.625 109.17 408.155 108.47 409.005 108.18C408.285 107.89 407.875 107.3 407.875 106.56C407.875 105.46 408.815 104.71 410.185 104.71C411.545 104.71 412.455 105.46 412.455 106.57C412.455 107.32 412.055 107.91 411.345 108.18C412.175 108.44 412.725 109.16 412.725 110.06C412.725 111.28 411.695 112.12 410.175 112.12C408.655 112.12 407.625 111.28 407.625 110.05ZM408.555 106.58C408.555 107.37 409.195 107.9 410.175 107.9C411.145 107.9 411.775 107.39 411.775 106.6C411.775 105.83 411.145 105.35 410.175 105.35C409.195 105.35 408.555 105.83 408.555 106.58ZM408.335 109.99C408.335 110.88 409.075 111.47 410.185 111.47C411.275 111.47 412.015 110.88 412.015 109.99C412.015 109.11 411.295 108.54 410.165 108.54C409.055 108.54 408.335 109.11 408.335 109.99Z" fill="black"/>
<rect x="379.5" y="96.5" width="54" height="24" stroke="#E0E3E8"/>
<rect x="379.5" y="120.5" width="54" height="24" fill="#F9F9F9"/>
<path d="M406.03 132.16H405.46V131.66L407.67 129.48H404.24V128.84H408.58V129.42L406.44 131.55C407.78 131.62 408.74 132.47 408.74 133.77C408.74 135.19 407.7 136.12 406.25 136.12C404.84 136.12 403.89 135.25 403.89 133.82H404.6C404.6 134.85 405.24 135.47 406.25 135.47C407.32 135.47 408.01 134.79 408.01 133.75C408.01 132.77 407.31 132.16 406.03 132.16Z" fill="black"/>
<rect x="379.5" y="120.5" width="54" height="24" stroke="#E0E3E8"/>
<rect x="379.5" y="144.5" width="54" height="24" fill="#F9F9F9"/>
<rect x="379.5" y="144.5" width="54" height="24" stroke="#E0E3E8"/>
<rect x="433.5" y="0.5" width="54" height="24" fill="#F9F9F9"/>
<path d="M458.59 16H457.31V8.69H458.59V11.71H461.83V8.69H463.11V16H461.83V12.9H458.59V16Z" fill="black"/>
<rect x="433.5" y="0.5" width="54" height="24" stroke="#E0E3E8"/>
<rect x="433.5" y="24.5" width="54" height="24" fill="#F9F9F9"/>
<rect x="433.5" y="24.5" width="54" height="24" stroke="#E0E3E8"/>
<rect x="433.5" y="48.5" width="54" height="24" fill="#F9F9F9"/>
<rect x="433.5" y="48.5" width="54" height="24" stroke="#E0E3E8"/>
<rect x="433.5" y="72.5" width="54" height="24" fill="#F9F9F9"/>
<rect x="433.5" y="72.5" width="54" height="24" stroke="#E0E3E8"/>
<rect x="433.5" y="96.5" width="54" height="24" fill="#F9F9F9"/>
<rect x="433.5" y="96.5" width="54" height="24" stroke="#E0E3E8"/>
<rect x="433.5" y="120.5" width="54" height="24" fill="#F9F9F9"/>
<rect x="433.5" y="120.5" width="54" height="24" stroke="#E0E3E8"/>
<rect x="433.5" y="144.5" width="54" height="24" fill="#F9F9F9"/>
<rect x="433.5" y="144.5" width="54" height="24" stroke="#E0E3E8"/>
<rect x="487.5" y="0.5" width="54" height="24" fill="#F9F9F9"/>
<path d="M515.09 8.69V16H513.81V8.69H515.09Z" fill="black"/>
<rect x="487.5" y="0.5" width="54" height="24" stroke="#E0E3E8"/>
<rect x="487.5" y="24.5" width="54" height="24" fill="#F9F9F9"/>
<rect x="487.5" y="24.5" width="54" height="24" stroke="#E0E3E8"/>
<rect x="487.5" y="48.5" width="54" height="24" fill="#F9F9F9"/>
<rect x="487.5" y="48.5" width="54" height="24" stroke="#E0E3E8"/>
<rect x="487.5" y="72.5" width="54" height="24" fill="#F9F9F9"/>
<rect x="487.5" y="72.5" width="54" height="24" stroke="#E0E3E8"/>
<rect x="487.5" y="96.5" width="54" height="24" fill="#F9F9F9"/>
<rect x="487.5" y="96.5" width="54" height="24" stroke="#E0E3E8"/>
<rect x="487.5" y="120.5" width="54" height="24" fill="#F9F9F9"/>
<rect x="487.5" y="120.5" width="54" height="24" stroke="#E0E3E8"/>
<rect x="487.5" y="144.5" width="54" height="24" fill="#F9F9F9"/>
<rect x="487.5" y="144.5" width="54" height="24" stroke="#E0E3E8"/>
<rect x="541.5" y="0.5" width="54" height="24" fill="#F9F9F9"/>
<path d="M565.7 13.94V13.51H566.93V13.94C566.93 14.5 567.24 14.94 567.96 14.94C568.68 14.94 568.98 14.53 568.98 13.89V8.69H570.26V13.96C570.26 15.25 569.36 16.13 567.97 16.13C566.47 16.13 565.7 15.2 565.7 13.94Z" fill="black"/>
<rect x="541.5" y="0.5" width="54" height="24" stroke="#E0E3E8"/>
<rect x="541.5" y="24.5" width="54" height="24" fill="#F9F9F9"/>
<rect x="541.5" y="24.5" width="54" height="24" stroke="#E0E3E8"/>
<rect x="541.5" y="48.5" width="54" height="24" fill="#F9F9F9"/>
<rect x="541.5" y="48.5" width="54" height="24" stroke="#E0E3E8"/>
<rect x="541.5" y="72.5" width="54" height="24" fill="#F9F9F9"/>
<rect x="541.5" y="72.5" width="54" height="24" stroke="#E0E3E8"/>
<rect x="541.5" y="96.5" width="54" height="24" fill="#F9F9F9"/>
<rect x="541.5" y="96.5" width="54" height="24" stroke="#E0E3E8"/>
<rect x="541.5" y="120.5" width="54" height="24" fill="#F9F9F9"/>
<rect x="541.5" y="120.5" width="54" height="24" stroke="#E0E3E8"/>
<rect x="541.5" y="144.5" width="54" height="24" fill="#F9F9F9"/>
<rect x="541.5" y="144.5" width="54" height="24" stroke="#E0E3E8"/>
<rect x="595.5" y="0.5" width="54" height="24" fill="#F9F9F9"/>
<path d="M621.09 8.69V12.53L624.05 8.69H625.56L623.14 11.81L625.59 16H624.11L622.3 12.89L621.09 14.44V16H619.81V8.69H621.09Z" fill="black"/>
<rect x="595.5" y="0.5" width="54" height="24" stroke="#E0E3E8"/>
<rect x="595.5" y="24.5" width="54" height="24" fill="#F9F9F9"/>
<rect x="595.5" y="24.5" width="54" height="24" stroke="#E0E3E8"/>
<rect x="595.5" y="48.5" width="54" height="24" fill="#F9F9F9"/>
<rect x="595.5" y="48.5" width="54" height="24" stroke="#E0E3E8"/>
<rect x="595.5" y="72.5" width="54" height="24" fill="#F9F9F9"/>
<rect x="595.5" y="72.5" width="54" height="24" stroke="#E0E3E8"/>
<rect x="595.5" y="96.5" width="54" height="24" fill="#F9F9F9"/>
<rect x="595.5" y="96.5" width="54" height="24" stroke="#E0E3E8"/>
<rect x="595.5" y="120.5" width="54" height="24" fill="#F9F9F9"/>
<rect x="595.5" y="120.5" width="54" height="24" stroke="#E0E3E8"/>
<rect x="595.5" y="144.5" width="54" height="24" fill="#F9F9F9"/>
<rect x="595.5" y="144.5" width="54" height="24" stroke="#E0E3E8"/>
<rect x="649.5" y="0.5" width="54" height="24" fill="#F9F9F9"/>
<path d="M675.59 8.69V14.82H678.65V16H674.31V8.69H675.59Z" fill="black"/>
<rect x="649.5" y="0.5" width="54" height="24" stroke="#E0E3E8"/>
<rect x="649.5" y="24.5" width="54" height="24" fill="#F9F9F9"/>
<rect x="649.5" y="24.5" width="54" height="24" stroke="#E0E3E8"/>
<rect x="649.5" y="48.5" width="54" height="24" fill="#F9F9F9"/>
<rect x="649.5" y="48.5" width="54" height="24" stroke="#E0E3E8"/>
<rect x="649.5" y="72.5" width="54" height="24" fill="#F9F9F9"/>
<rect x="649.5" y="72.5" width="54" height="24" stroke="#E0E3E8"/>
<rect x="649.5" y="96.5" width="54" height="24" fill="#F9F9F9"/>
<rect x="649.5" y="96.5" width="54" height="24" stroke="#E0E3E8"/>
<rect x="649.5" y="120.5" width="54" height="24" fill="#F9F9F9"/>
<rect x="649.5" y="120.5" width="54" height="24" stroke="#E0E3E8"/>
<rect x="649.5" y="144.5" width="54" height="24" fill="#F9F9F9"/>
<rect x="649.5" y="144.5" width="54" height="24" stroke="#E0E3E8"/>
<rect x="703.5" y="0.5" width="54" height="24" fill="#F9F9F9"/>
<path d="M728.05 16H726.81V8.69H728.05L730.41 14.51L732.77 8.69H734.03V16H732.79V13.75C732.79 12.28 732.79 11.85 732.86 11.33L731 16H729.82L727.97 11.34C728.04 11.78 728.05 12.47 728.05 13.38V16Z" fill="black"/>
<rect x="703.5" y="0.5" width="54" height="24" stroke="#E0E3E8"/>
<rect x="703.5" y="24.5" width="54" height="24" fill="#F9F9F9"/>
<rect x="703.5" y="24.5" width="54" height="24" stroke="#E0E3E8"/>
<rect x="703.5" y="48.5" width="54" height="24" fill="#F9F9F9"/>
<rect x="703.5" y="48.5" width="54" height="24" stroke="#E0E3E8"/>
<rect x="703.5" y="72.5" width="54" height="24" fill="#F9F9F9"/>
<rect x="703.5" y="72.5" width="54" height="24" stroke="#E0E3E8"/>
<rect x="703.5" y="96.5" width="54" height="24" fill="#F9F9F9"/>
<rect x="703.5" y="96.5" width="54" height="24" stroke="#E0E3E8"/>
<rect x="703.5" y="120.5" width="54" height="24" fill="#F9F9F9"/>
<rect x="703.5" y="120.5" width="54" height="24" stroke="#E0E3E8"/>
<rect x="703.5" y="144.5" width="54" height="24" fill="#F9F9F9"/>
<rect x="703.5" y="144.5" width="54" height="24" stroke="#E0E3E8"/>
<rect x="757.5" y="0.5" width="54" height="24" fill="#F9F9F9"/>
<path d="M782.57 16H781.31V8.69H782.58L786.01 13.87V8.69H787.27V16H786.01L782.57 10.82V16Z" fill="black"/>
<rect x="757.5" y="0.5" width="54" height="24" stroke="#E0E3E8"/>
<rect x="757.5" y="24.5" width="54" height="24" fill="#F9F9F9"/>
<rect x="757.5" y="24.5" width="54" height="24" stroke="#E0E3E8"/>
<rect x="757.5" y="48.5" width="54" height="24" fill="#F9F9F9"/>
<rect x="757.5" y="48.5" width="54" height="24" stroke="#E0E3E8"/>
<rect x="757.5" y="72.5" width="54" height="24" fill="#F9F9F9"/>
<rect x="757.5" y="72.5" width="54" height="24" stroke="#E0E3E8"/>
<rect x="757.5" y="96.5" width="54" height="24" fill="#F9F9F9"/>
<rect x="757.5" y="96.5" width="54" height="24" stroke="#E0E3E8"/>
<rect x="757.5" y="120.5" width="54" height="24" fill="#F9F9F9"/>
<rect x="757.5" y="120.5" width="54" height="24" stroke="#E0E3E8"/>
<rect x="757.5" y="144.5" width="54" height="24" fill="#F9F9F9"/>
<rect x="757.5" y="144.5" width="54" height="24" stroke="#E0E3E8"/>
<rect x="811.5" y="0.5" width="54" height="24" fill="#F9F9F9"/>
<path d="M841.98 12.34C841.98 14.56 840.52 16.12 838.42 16.12C836.33 16.12 834.89 14.57 834.89 12.34C834.89 10.12 836.34 8.56 838.43 8.56C840.52 8.56 841.98 10.11 841.98 12.34ZM840.63 12.34C840.63 10.78 839.77 9.79 838.43 9.79C837.09 9.79 836.23 10.78 836.23 12.34C836.23 13.9 837.09 14.89 838.43 14.89C839.77 14.89 840.63 13.88 840.63 12.34Z" fill="black"/>
<rect x="811.5" y="0.5" width="54" height="24" stroke="#E0E3E8"/>
<rect x="811.5" y="24.5" width="54" height="24" fill="#F9F9F9"/>
<rect x="811.5" y="24.5" width="54" height="24" stroke="#E0E3E8"/>
<rect x="811.5" y="48.5" width="54" height="24" fill="#F9F9F9"/>
<rect x="811.5" y="48.5" width="54" height="24" stroke="#E0E3E8"/>
<rect x="811.5" y="72.5" width="54" height="24" fill="#F9F9F9"/>
<rect x="811.5" y="72.5" width="54" height="24" stroke="#E0E3E8"/>
<rect x="811.5" y="96.5" width="54" height="24" fill="#F9F9F9"/>
<rect x="811.5" y="96.5" width="54" height="24" stroke="#E0E3E8"/>
<rect x="811.5" y="120.5" width="54" height="24" fill="#F9F9F9"/>
<rect x="811.5" y="120.5" width="54" height="24" stroke="#E0E3E8"/>
<rect x="811.5" y="144.5" width="54" height="24" fill="#F9F9F9"/>
<rect x="811.5" y="144.5" width="54" height="24" stroke="#E0E3E8"/>
<rect x="865.5" y="0.5" width="54" height="24" fill="#F9F9F9"/>
<path d="M892.7 13.48H891.09V16H889.81V8.69H892.7C894.17 8.69 895.12 9.65 895.12 11.08C895.12 12.49 894.16 13.48 892.7 13.48ZM892.45 9.83H891.09V12.34H892.43C893.31 12.34 893.78 11.87 893.78 11.07C893.78 10.27 893.3 9.83 892.45 9.83Z" fill="black"/>
<rect x="865.5" y="0.5" width="54" height="24" stroke="#E0E3E8"/>
<rect x="865.5" y="24.5" width="54" height="24" fill="#F9F9F9"/>
<rect x="865.5" y="24.5" width="54" height="24" stroke="#E0E3E8"/>
<rect x="865.5" y="48.5" width="54" height="24" fill="#F9F9F9"/>
<rect x="865.5" y="48.5" width="54" height="24" stroke="#E0E3E8"/>
<rect x="865.5" y="72.5" width="54" height="24" fill="#F9F9F9"/>
<rect x="865.5" y="72.5" width="54" height="24" stroke="#E0E3E8"/>
<rect x="865.5" y="96.5" width="54" height="24" fill="#F9F9F9"/>
<rect x="865.5" y="96.5" width="54" height="24" stroke="#E0E3E8"/>
<rect x="865.5" y="120.5" width="54" height="24" fill="#F9F9F9"/>
<rect x="865.5" y="120.5" width="54" height="24" stroke="#E0E3E8"/>
<rect x="865.5" y="144.5" width="54" height="24" fill="#F9F9F9"/>
<rect x="865.5" y="144.5" width="54" height="24" stroke="#E0E3E8"/>
<rect x="919.5" y="0.5" width="54" height="24" fill="#F9F9F9"/>
<path d="M949.05 16.55L948.25 15.65C947.73 15.95 947.11 16.12 946.42 16.12C944.33 16.12 942.89 14.57 942.89 12.34C942.89 10.12 944.34 8.56 946.43 8.56C948.52 8.56 949.98 10.11 949.98 12.34C949.98 13.39 949.66 14.29 949.09 14.95L949.87 15.82L949.05 16.55ZM948.63 12.34C948.63 10.78 947.77 9.79 946.43 9.79C945.09 9.79 944.23 10.78 944.23 12.34C944.23 13.9 945.09 14.89 946.43 14.89C946.79 14.89 947.11 14.82 947.4 14.68L946.43 13.59L947.24 12.86L948.21 13.95C948.48 13.53 948.63 12.98 948.63 12.34Z" fill="black"/>
<rect x="919.5" y="0.5" width="54" height="24" stroke="#E0E3E8"/>
<rect x="919.5" y="24.5" width="54" height="24" fill="#F9F9F9"/>
<rect x="919.5" y="24.5" width="54" height="24" stroke="#E0E3E8"/>
<rect x="919.5" y="48.5" width="54" height="24" fill="#F9F9F9"/>
<rect x="919.5" y="48.5" width="54" height="24" stroke="#E0E3E8"/>
<rect x="919.5" y="72.5" width="54" height="24" fill="#F9F9F9"/>
<rect x="919.5" y="72.5" width="54" height="24" stroke="#E0E3E8"/>
<rect x="919.5" y="96.5" width="54" height="24" fill="#F9F9F9"/>
<rect x="919.5" y="96.5" width="54" height="24" stroke="#E0E3E8"/>
<rect x="919.5" y="120.5" width="54" height="24" fill="#F9F9F9"/>
<rect x="919.5" y="120.5" width="54" height="24" stroke="#E0E3E8"/>
<rect x="919.5" y="144.5" width="54" height="24" fill="#F9F9F9"/>
<rect x="919.5" y="144.5" width="54" height="24" stroke="#E0E3E8"/>
<rect x="973.5" y="0.5" width="54" height="24" fill="#F9F9F9"/>
<path d="M999.09 16H997.81V8.69H1000.6C1002.26 8.69 1003.23 9.53 1003.23 10.97C1003.23 11.95 1002.77 12.65 1001.91 13L1003.3 16H1001.9L1000.66 13.27H999.09V16ZM999.09 9.83V12.14H1000.6C1001.41 12.14 1001.89 11.71 1001.89 10.97C1001.89 10.24 1001.41 9.83 1000.6 9.83H999.09Z" fill="black"/>
<rect x="973.5" y="0.5" width="54" height="24" stroke="#E0E3E8"/>
<rect x="973.5" y="24.5" width="54" height="24" fill="#F9F9F9"/>
<rect x="973.5" y="24.5" width="54" height="24" stroke="#E0E3E8"/>
<rect x="973.5" y="48.5" width="54" height="24" fill="#F9F9F9"/>
<rect x="973.5" y="48.5" width="54" height="24" stroke="#E0E3E8"/>
<rect x="973.5" y="72.5" width="54" height="24" fill="#F9F9F9"/>
<rect x="973.5" y="72.5" width="54" height="24" stroke="#E0E3E8"/>
<rect x="973.5" y="96.5" width="54" height="24" fill="#F9F9F9"/>
<rect x="973.5" y="96.5" width="54" height="24" stroke="#E0E3E8"/>
<rect x="973.5" y="120.5" width="54" height="24" fill="#F9F9F9"/>
<rect x="973.5" y="120.5" width="54" height="24" stroke="#E0E3E8"/>
<rect x="973.5" y="144.5" width="54" height="24" fill="#F9F9F9"/>
<rect x="973.5" y="144.5" width="54" height="24" stroke="#E0E3E8"/>
<g filter="url(#filter0_d_3069_82922)">
<rect x="218" y="48" width="216" height="96" fill="#FFBE05" fill-opacity="0.1" shape-rendering="crispEdges"/>
<rect x="218.75" y="48.75" width="214.5" height="94.5" stroke="#FFBE05" stroke-width="1.5" stroke-dasharray="6 4" shape-rendering="crispEdges"/>
</g>
<path d="M120.5 161C120.5 159.067 122.067 157.5 124 157.5H1024C1025.93 157.5 1027.5 159.067 1027.5 161V181.5H120.5V161Z" fill="#F9F9F9"/>
<path d="M120.5 161C120.5 159.067 122.067 157.5 124 157.5H1024C1025.93 157.5 1027.5 159.067 1027.5 161V181.5H120.5V161Z" stroke="#E0E3E8"/>
<path d="M138.5 161C138.5 159.067 140.067 157.5 142 157.5H274C275.933 157.5 277.5 159.067 277.5 161V181.5H138.5V161Z" fill="#F9F9F9"/>
<path d="M160.59 173H159.87V165.84H160.6L164.54 171.8V165.84H165.25V173H164.54L160.59 167.04V173ZM166.509 170.58C166.509 169.1 167.549 168.03 168.969 168.03C170.389 168.03 171.429 169.1 171.429 170.58C171.429 172.05 170.389 173.12 168.969 173.12C167.549 173.12 166.509 172.05 166.509 170.58ZM167.209 170.57C167.209 171.71 167.929 172.5 168.969 172.5C169.999 172.5 170.729 171.71 170.729 170.57C170.729 169.45 169.999 168.65 168.969 168.65C167.929 168.65 167.209 169.45 167.209 170.57ZM172.193 170.59C172.193 169.07 173.123 168.03 174.533 168.03C175.653 168.03 176.473 168.68 176.663 169.68H175.973C175.793 169.01 175.213 168.64 174.543 168.64C173.563 168.64 172.873 169.39 172.873 170.58C172.873 171.73 173.513 172.5 174.493 172.5C175.213 172.5 175.793 172.1 175.983 171.48H176.683C176.453 172.47 175.593 173.12 174.493 173.12C173.123 173.12 172.193 172.11 172.193 170.59ZM178.418 172.99H177.728V165.71H178.418V169C178.728 168.42 179.318 168.03 180.128 168.03C181.398 168.03 181.968 168.82 181.968 170.04V173H181.278V170.19C181.278 169.06 180.748 168.66 179.998 168.66C178.958 168.66 178.418 169.43 178.418 170.36V172.99ZM188.146 173.12C186.726 173.12 185.776 172.1 185.776 170.58C185.776 169.07 186.716 168.03 188.096 168.03C189.406 168.03 190.296 168.96 190.296 170.33V170.67H186.446C186.496 171.85 187.116 172.53 188.156 172.53C188.946 172.53 189.456 172.19 189.636 171.55H190.296C190.036 172.57 189.286 173.12 188.146 173.12ZM188.096 168.62C187.186 168.62 186.586 169.22 186.466 170.17H189.606C189.606 169.24 189.006 168.62 188.096 168.62ZM191.74 166.83C191.46 166.83 191.23 166.6 191.23 166.32C191.23 166.04 191.46 165.8 191.74 165.8C192.02 165.8 192.26 166.04 192.26 166.32C192.26 166.6 192.02 166.83 191.74 166.83ZM191.4 173V168.16H192.09V173H191.4ZM194.219 173H193.529V168.16H194.129L194.229 169C194.549 168.38 195.189 168.03 195.889 168.03C197.219 168.03 197.769 168.82 197.769 170.04V173H197.079V170.19C197.079 169.06 196.569 168.66 195.769 168.66C194.779 168.66 194.219 169.38 194.219 170.47V173ZM201.317 166.5V165.84H206.447V166.5H204.237V173H203.517V166.5H201.317ZM207.936 173.12C206.906 173.12 206.296 172.54 206.296 171.69C206.296 170.8 206.976 170.24 208.106 170.15L209.706 170.02V169.86C209.706 168.91 209.136 168.61 208.426 168.61C207.586 168.61 207.086 168.99 207.086 169.64H206.456C206.456 168.66 207.256 168.03 208.446 168.03C209.566 168.03 210.386 168.59 210.386 169.87V173H209.806L209.716 172.15C209.416 172.76 208.756 173.12 207.936 173.12ZM208.096 172.56C209.116 172.56 209.706 171.85 209.706 170.8V170.54L208.276 170.65C207.366 170.73 206.996 171.13 206.996 171.67C206.996 172.26 207.436 172.56 208.096 172.56ZM212.371 173H211.771V165.71H212.461V169.1C212.801 168.39 213.461 168.03 214.281 168.03C215.691 168.03 216.511 169.13 216.511 170.59C216.511 172.04 215.671 173.12 214.261 173.12C213.451 173.12 212.781 172.76 212.441 172.01L212.371 173ZM212.471 170.57C212.471 171.69 213.091 172.49 214.151 172.49C215.201 172.49 215.811 171.69 215.811 170.57C215.811 169.46 215.201 168.65 214.151 168.65C213.091 168.65 212.471 169.46 212.471 170.57ZM219.641 173.12C218.221 173.12 217.271 172.1 217.271 170.58C217.271 169.07 218.211 168.03 219.591 168.03C220.901 168.03 221.791 168.96 221.791 170.33V170.67H217.941C217.991 171.85 218.611 172.53 219.651 172.53C220.441 172.53 220.951 172.19 221.131 171.55H221.791C221.531 172.57 220.781 173.12 219.641 173.12ZM219.591 168.62C218.681 168.62 218.081 169.22 217.961 170.17H221.101C221.101 169.24 220.501 168.62 219.591 168.62ZM223.614 173H222.924V165.71H223.614V173ZM225.801 173H225.111V165.71H225.801V173ZM229.299 173.12C227.879 173.12 226.929 172.1 226.929 170.58C226.929 169.07 227.869 168.03 229.249 168.03C230.559 168.03 231.449 168.96 231.449 170.33V170.67H227.599C227.649 171.85 228.269 172.53 229.309 172.53C230.099 172.53 230.609 172.19 230.789 171.55H231.449C231.189 172.57 230.439 173.12 229.299 173.12ZM229.249 168.62C228.339 168.62 227.739 169.22 227.619 170.17H230.759C230.759 169.24 230.159 168.62 229.249 168.62ZM233.242 173H232.552V168.16H233.152L233.252 169C233.572 168.38 234.212 168.03 234.912 168.03C236.242 168.03 236.792 168.82 236.792 170.04V173H236.102V170.19C236.102 169.06 235.592 168.66 234.792 168.66C233.802 168.66 233.242 169.38 233.242 170.47V173ZM238.767 173H238.167V165.71H238.857V169.1C239.197 168.39 239.857 168.03 240.677 168.03C242.087 168.03 242.907 169.13 242.907 170.59C242.907 172.04 242.067 173.12 240.657 173.12C239.847 173.12 239.177 172.76 238.837 172.01L238.767 173ZM238.867 170.57C238.867 171.69 239.487 172.49 240.547 172.49C241.597 172.49 242.207 171.69 242.207 170.57C242.207 169.46 241.597 168.65 240.547 168.65C239.487 168.65 238.867 169.46 238.867 170.57ZM244.727 173H244.037V165.71H244.727V173ZM247.585 173.12C246.555 173.12 245.945 172.54 245.945 171.69C245.945 170.8 246.625 170.24 247.755 170.15L249.355 170.02V169.86C249.355 168.91 248.785 168.61 248.075 168.61C247.235 168.61 246.735 168.99 246.735 169.64H246.105C246.105 168.66 246.905 168.03 248.095 168.03C249.215 168.03 250.035 168.59 250.035 169.87V173H249.455L249.365 172.15C249.065 172.76 248.405 173.12 247.585 173.12ZM247.745 172.56C248.765 172.56 249.355 171.85 249.355 170.8V170.54L247.925 170.65C247.015 170.73 246.645 171.13 246.645 171.67C246.645 172.26 247.085 172.56 247.745 172.56ZM252.441 173H251.761V168.74H250.791V168.16H251.761V166.63H252.441V168.16H253.411V168.74H252.441V173ZM255.459 173H254.779V168.74H253.809V168.16H254.779V166.63H255.459V168.16H256.429V168.74H255.459V173Z" fill="black"/>
<path d="M138.5 161C138.5 159.067 140.067 157.5 142 157.5H274C275.933 157.5 277.5 159.067 277.5 161V181.5H138.5V161Z" stroke="#E0E3E8"/>
<path d="M0.5 161C0.5 159.067 2.067 157.5 4 157.5H136C137.933 157.5 139.5 159.067 139.5 161V181.5H0.5V161Z" fill="#F9F9F9"/>
<path d="M31.05 173H29.81V165.69H31.05L33.41 171.51L35.77 165.69H37.03V173H35.79V170.75C35.79 169.28 35.79 168.85 35.86 168.33L34 173H32.82L30.97 168.34C31.04 168.78 31.05 169.47 31.05 170.38V173ZM40.6779 173.13C39.2079 173.13 38.1779 172.06 38.1779 170.53C38.1779 168.98 39.1879 167.91 40.6379 167.91C42.1179 167.91 43.0579 168.9 43.0579 170.44V170.81L39.3379 170.82C39.4279 171.69 39.8879 172.13 40.6979 172.13C41.3679 172.13 41.8079 171.87 41.9479 171.4H43.0779C42.8679 172.48 41.9679 173.13 40.6779 173.13ZM40.6479 168.91C39.9279 168.91 39.4879 169.3 39.3679 170.04H41.8479C41.8479 169.36 41.3779 168.91 40.6479 168.91ZM44.6443 167.07C44.2243 167.07 43.8943 166.74 43.8943 166.33C43.8943 165.92 44.2243 165.6 44.6443 165.6C45.0443 165.6 45.3743 165.92 45.3743 166.33C45.3743 166.74 45.0443 167.07 44.6443 167.07ZM44.0343 173V168.06H45.2543V173H44.0343ZM47.7348 173H46.5148V168.06H47.6448L47.7448 168.7C48.0548 168.2 48.6548 167.91 49.3248 167.91C50.5648 167.91 51.2048 168.68 51.2048 169.96V173H49.9848V170.25C49.9848 169.42 49.5748 169.02 48.9448 169.02C48.1948 169.02 47.7348 169.54 47.7348 170.34V173ZM51.3477 166.87V165.69H56.9077V166.87H54.7677V173H53.4877V166.87H51.3477ZM58.3363 173.13C57.2863 173.13 56.6463 172.52 56.6463 171.59C56.6463 170.68 57.3063 170.11 58.4763 170.02L59.9563 169.91V169.8C59.9563 169.13 59.5563 168.86 58.9363 168.86C58.2163 168.86 57.8163 169.16 57.8163 169.68H56.7763C56.7763 168.61 57.6563 167.91 58.9963 167.91C60.3263 167.91 61.1463 168.63 61.1463 170V173H60.0763L59.9863 172.27C59.7763 172.78 59.1063 173.13 58.3363 173.13ZM58.7363 172.21C59.4863 172.21 59.9663 171.76 59.9663 171V170.74L58.9363 170.82C58.1763 170.89 57.8863 171.14 57.8863 171.54C57.8863 171.99 58.1863 172.21 58.7363 172.21ZM63.4748 173H62.3448V165.56H63.5648V168.78C63.8848 168.23 64.5448 167.9 65.2948 167.9C66.7048 167.9 67.5648 169 67.5648 170.56C67.5648 172.08 66.6348 173.13 65.2148 173.13C64.4748 173.13 63.8448 172.8 63.5548 172.23L63.4748 173ZM63.5748 170.51C63.5748 171.4 64.1248 172.01 64.9648 172.01C65.8248 172.01 66.3348 171.39 66.3348 170.51C66.3348 169.63 65.8248 169 64.9648 169C64.1248 169 63.5748 169.62 63.5748 170.51ZM70.7463 173.13C69.2763 173.13 68.2463 172.06 68.2463 170.53C68.2463 168.98 69.2563 167.91 70.7063 167.91C72.1863 167.91 73.1263 168.9 73.1263 170.44V170.81L69.4063 170.82C69.4963 171.69 69.9563 172.13 70.7663 172.13C71.4363 172.13 71.8763 171.87 72.0163 171.4H73.1463C72.9363 172.48 72.0363 173.13 70.7463 173.13ZM70.7163 168.91C69.9963 168.91 69.5563 169.3 69.4363 170.04H71.9163C71.9163 169.36 71.4463 168.91 70.7163 168.91ZM75.3327 173H74.1227V165.56H75.3327V173ZM77.8424 173H76.6324V165.56H77.8424V173ZM81.3322 173.13C79.8622 173.13 78.8322 172.06 78.8322 170.53C78.8322 168.98 79.8422 167.91 81.2922 167.91C82.7722 167.91 83.7122 168.9 83.7122 170.44V170.81L79.9922 170.82C80.0822 171.69 80.5422 172.13 81.3522 172.13C82.0222 172.13 82.4622 171.87 82.6022 171.4H83.7322C83.5222 172.48 82.6222 173.13 81.3322 173.13ZM81.3022 168.91C80.5822 168.91 80.1422 169.3 80.0222 170.04H82.5022C82.5022 169.36 82.0322 168.91 81.3022 168.91ZM85.9086 173H84.6886V168.06H85.8186L85.9186 168.7C86.2286 168.2 86.8286 167.91 87.4986 167.91C88.7386 167.91 89.3786 168.68 89.3786 169.96V173H88.1586V170.25C88.1586 169.42 87.7486 169.02 87.1186 169.02C86.3686 169.02 85.9086 169.54 85.9086 170.34V173ZM91.7073 173H90.5773V165.56H91.7973V168.78C92.1173 168.23 92.7773 167.9 93.5273 167.9C94.9373 167.9 95.7973 169 95.7973 170.56C95.7973 172.08 94.8673 173.13 93.4473 173.13C92.7073 173.13 92.0773 172.8 91.7873 172.23L91.7073 173ZM91.8073 170.51C91.8073 171.4 92.3573 172.01 93.1973 172.01C94.0573 172.01 94.5673 171.39 94.5673 170.51C94.5673 169.63 94.0573 169 93.1973 169C92.3573 169 91.8073 169.62 91.8073 170.51ZM97.9987 173H96.7887V165.56H97.9987V173ZM100.748 173.13C99.6984 173.13 99.0584 172.52 99.0584 171.59C99.0584 170.68 99.7184 170.11 100.888 170.02L102.368 169.91V169.8C102.368 169.13 101.968 168.86 101.348 168.86C100.628 168.86 100.228 169.16 100.228 169.68H99.1884C99.1884 168.61 100.068 167.91 101.408 167.91C102.738 167.91 103.558 168.63 103.558 170V173H102.488L102.398 172.27C102.188 172.78 101.518 173.13 100.748 173.13ZM101.148 172.21C101.898 172.21 102.378 171.76 102.378 171V170.74L101.348 170.82C100.588 170.89 100.298 171.14 100.298 171.54C100.298 171.99 100.598 172.21 101.148 172.21ZM106.369 173H105.149V169.08H104.199V168.06H105.149V166.52H106.369V168.06H107.329V169.08H106.369V173ZM109.904 173H108.684V169.08H107.734V168.06H108.684V166.52H109.904V168.06H110.864V169.08H109.904V173Z" fill="black"/>
<path d="M0.5 161C0.5 159.067 2.067 157.5 4 157.5H136C137.933 157.5 139.5 159.067 139.5 161V181.5H0.5V161Z" stroke="black"/>
<defs>
<filter id="filter0_d_3069_82922" x="214" y="44" width="224" height="104" filterUnits="userSpaceOnUse" color-interpolation-filters="sRGB">
<feFlood flood-opacity="0" result="BackgroundImageFix"/>
<feColorMatrix in="SourceAlpha" type="matrix" values="0 0 0 0 0 0 0 0 0 0 0 0 0 0 0 0 0 0 127 0" result="hardAlpha"/>
<feOffset/>
<feGaussianBlur stdDeviation="2"/>
<feComposite in2="hardAlpha" operator="out"/>
<feColorMatrix type="matrix" values="0 0 0 0 0 0 0 0 0 0 0 0 0 0 0 0 0 0 0.1 0"/>
<feBlend mode="normal" in2="BackgroundImageFix" result="effect1_dropShadow_3069_82922"/>
<feBlend mode="normal" in="SourceGraphic" in2="effect1_dropShadow_3069_82922" result="shape"/>
</filter>
</defs>
</svg>
